<svg width="100" height="100" viewBox="0 0 100 100" fill="none" xmlns="http://www.w3.org/2000/svg">
<path d="M59.317 83.0398V94.2539L49.5394 100L40.0399 94.2539V83.0398L49.5394 88.7859L59.317 83.0398ZM7 44.2539L16.4995 50V69.2308L32.8573 79.0083V90.2224L7 74.9768V44.2539ZM92.0324 44.2539V75.0232L65.8971 90.2688V79.0547L82.2549 69.2771V50.0463L92.0324 44.2539ZM65.8971 29.0083L75.6747 34.7544V45.9685L59.317 55.7461V75.3012L49.8174 81.0473L40.3179 75.3012V55.7461L23.3577 45.9685V34.7544L33.1353 29.0083L49.493 38.7859L65.8971 29.0083ZM23.3577 54.0315L32.8573 59.7776V70.9917L23.3577 65.2456V54.0315ZM75.6747 54.0315V65.2456L66.1752 70.9917V59.7776L75.6747 54.0315ZM16.4995 19.2308L26.2771 24.9768L16.4995 30.7692V41.9833L7 36.1909V24.9768L16.4995 19.2308ZM82.5792 19.2308L92.3568 24.9768V36.1909L82.5792 41.937V30.7692L73.0797 25.0232L82.5792 19.2308ZM49.5394 19.2308L59.317 24.9768L49.5394 30.7692L40.0399 24.9768L49.5394 19.2308ZM49.5394 0L75.6747 15.2456L66.1752 20.9917L49.8174 11.2141L33.1353 20.9917L23.6821 15.2456L49.5394 0Z" fill="#F3BA2F"/>
</svg>
