<?xml version="1.0" standalone="no"?>
<!DOCTYPE svg PUBLIC "-//W3C//DTD SVG 20010904//EN"
 "http://www.w3.org/TR/2001/REC-SVG-20010904/DTD/svg10.dtd">
<svg version="1.0" xmlns="http://www.w3.org/2000/svg"
 width="300.000000pt" height="300.000000pt" viewBox="0 0 300.000000 300.000000"
 preserveAspectRatio="xMidYMid meet">

<g transform="translate(0.000000,300.000000) scale(0.100000,-0.100000)"
fill="#000000" stroke="none">
<path d="M1285 2915 c-469 -77 -868 -371 -1070 -790 -106 -218 -140 -373 -140
-630 0 -200 17 -305 77 -474 141 -401 468 -728 869 -869 171 -60 274 -77 479
-77 157 0 201 3 289 23 289 65 520 190 721 392 203 202 330 438 392 723 32
147 32 427 0 574 -42 194 -110 354 -220 519 -123 182 -275 321 -479 437 -223
126 -404 176 -663 182 -116 3 -192 0 -255 -10z m454 -685 c-12 -46 -11 -55 3
-81 10 -16 15 -29 11 -29 -15 0 -126 66 -130 78 -3 7 4 23 15 35 18 18 25 19
47 9 24 -11 27 -10 29 21 1 11 27 28 35 21 2 -1 -3 -26 -10 -54z m238 49 c28
-11 28 -11 6 -20 -15 -5 -21 -14 -17 -24 7 -19 21 -19 54 0 35 20 40 19 40
-11 0 -26 2 -26 42 -20 l42 7 -20 -22 c-30 -33 -106 -67 -175 -79 -90 -14
-112 -13 -72 5 38 16 48 46 40 115 -8 64 2 72 60 49z m-129 -51 c17 -17 15
-48 -4 -55 -8 -3 -20 -1 -26 5 -8 8 -5 9 11 5 19 -5 22 -2 19 18 -4 35 -49 34
-59 -1 -6 -21 -7 -22 -8 -4 -1 24 17 44 39 44 9 0 21 -5 28 -12z m-500 -1381
c78 0 87 -3 83 -29 0 -4 11 -11 25 -14 26 -7 25 -16 -1 -20 -8 -1 -22 7 -30
19 -8 12 -15 16 -15 10 0 -10 -26 -13 -125 -14 -16 -1 -50 4 -75 9 -30 7 -47
7 -51 0 -4 -5 -22 -13 -40 -17 -22 -5 -33 -13 -31 -22 2 -8 0 -11 -4 -6 -4 4
-9 18 -10 30 -2 12 -1 17 2 11 5 -13 44 -7 44 7 0 4 -5 11 -12 15 -7 5 -8 2
-3 -7 5 -8 5 -11 1 -7 -28 24 41 50 109 41 28 -4 87 -7 133 -6z m109 -19 c2
-18 0 -20 -7 -8 -12 18 -13 30 -2 30 4 0 9 -10 9 -22z m53 5 c30 -20 40 -34
34 -45 -3 -4 2 -8 10 -8 9 0 16 -5 16 -11 0 -5 -4 -7 -10 -4 -5 3 -10 -1 -10
-10 0 -9 -4 -13 -10 -10 -5 3 -10 3 -11 -2 0 -4 -2 -17 -4 -28 -3 -11 -2 -29
2 -40 5 -19 6 -18 15 4 5 14 4 28 -1 35 -7 8 -3 16 11 25 19 12 20 11 14 -13
-4 -16 -2 -26 4 -26 6 0 8 5 5 10 -3 6 3 10 14 10 12 0 21 -4 21 -10 0 -6 -3
-9 -7 -8 -19 4 -41 -15 -36 -29 5 -12 3 -14 -8 -8 -12 8 -12 6 0 -8 15 -18 26
-23 16 -7 -3 6 -1 10 4 10 11 0 14 -11 9 -27 -2 -5 -7 -7 -11 -5 -5 1 -5 -2
-2 -8 5 -8 13 -6 24 4 10 9 23 16 30 16 7 0 9 5 6 11 -4 6 -13 8 -21 5 -17 -7
-19 10 -1 18 6 3 1 3 -12 0 -14 -4 -21 -2 -17 4 3 5 15 12 26 15 11 3 17 1 14
-4 -3 -5 1 -12 9 -15 15 -5 18 -17 19 -66 2 -105 -53 -182 -167 -235 -55 -26
-70 -28 -174 -28 -75 1 -116 4 -118 12 -2 6 -13 8 -25 5 -14 -3 -19 -1 -14 6
5 8 2 10 -8 6 -9 -3 -16 -2 -16 3 0 5 -9 9 -20 10 -23 2 -86 48 -94 69 -3 9
-1 12 4 9 6 -3 10 1 10 9 0 20 19 21 26 1 4 -8 13 -15 21 -15 8 0 28 -13 44
-30 16 -16 32 -29 34 -30 3 0 10 0 16 0 5 0 7 -5 3 -12 -5 -7 -3 -8 6 -3 7 5
41 7 75 6 97 -4 157 29 226 123 30 40 39 96 17 96 -7 0 -5 5 5 11 18 10 15 50
-5 76 -5 7 -5 14 1 17 18 11 5 41 -17 38 -11 -2 -23 2 -27 8 -3 5 1 10 9 10
20 0 31 19 17 33 -13 13 -15 47 -3 47 4 0 19 -8 32 -17z m-453 -85 c-7 -4 -12
-11 -12 -15 0 -13 -29 -48 -42 -50 -22 -5 -15 17 18 59 23 29 34 36 40 27 5
-8 3 -17 -4 -21z m538 -8 c3 -5 1 -10 -4 -10 -6 0 -11 5 -11 10 0 6 2 10 4 10
3 0 8 -4 11 -10z m-565 -124 c0 -2 -7 -7 -16 -10 -8 -3 -12 -2 -9 4 6 10 25
14 25 6z m184 -22 c73 -14 99 -15 149 -6 33 6 62 10 64 8 7 -7 -91 -36 -121
-36 -17 0 -71 9 -120 20 -50 11 -104 21 -120 21 l-31 1 30 8 c17 4 37 6 45 4
8 -1 55 -11 104 -20z m-175 -77 c8 -10 7 -14 -2 -14 -8 0 -14 6 -14 14 0 7 1
13 2 13 2 0 8 -6 14 -13z"/>
<path d="M1145 830 c3 -5 12 -7 20 -3 21 7 19 13 -6 13 -11 0 -18 -4 -14 -10z"/>
<path d="M1618 613 c7 -3 16 -2 19 1 4 3 -2 6 -13 5 -11 0 -14 -3 -6 -6z"/>
<path d="M1010 710 c-9 -6 -10 -10 -3 -10 6 0 15 5 18 10 8 12 4 12 -15 0z"/>
</g>
</svg>
