<svg width="100" height="100" viewBox="0 0 100 100" fill="none" xmlns="http://www.w3.org/2000/svg">
<g opacity="0.2">
<path d="M50.202 0L7 25.0318V74.9682L50.202 100L93.4041 74.9682V25.0318L50.202 0ZM86.6696 66.9632L76.5044 61.1182C76.3774 61.4994 76.2503 62.0076 75.9962 62.3888C75.615 62.8971 75.1067 63.1512 74.5985 63.4053C73.9632 63.5324 73.4549 63.6595 72.8196 63.6595C71.676 63.6595 70.5324 63.4053 69.5159 62.8971C69.6429 63.2783 69.6429 63.5324 69.77 63.9136C69.8971 64.4219 70.0241 64.9301 70.1512 65.4384L83.3659 73.0623L53.6328 89.9619V74.2059C53.2516 74.8412 52.9975 75.3494 52.7433 75.8577C51.5997 78.1449 51.0915 80.6862 51.2185 83.1004C51.2185 83.7357 50.9644 84.4981 50.5832 85.0064C50.075 85.5146 49.5667 85.8958 48.8043 85.8958C48.6773 85.8958 48.5502 85.8958 48.4231 85.8958C47.7878 85.8958 47.2795 85.6417 46.7713 85.2605V89.8348L17.2922 72.9352L23.7726 69.1233C24.4079 67.9797 25.0432 66.9632 25.8056 66.0737C26.695 65.0572 27.5845 64.1677 28.7281 63.4053L28.8551 63.2783C29.7446 62.643 30.507 62.0076 31.3964 61.4994C30.507 61.3723 29.6175 61.2452 28.8551 61.2452C28.2198 61.2452 27.7116 61.3723 27.2033 61.4994C26.8221 61.6264 26.4409 61.7535 26.0597 61.7535C25.6785 61.7535 25.1703 61.6264 24.7891 61.4994C24.5349 61.3723 24.2808 61.2452 24.1537 61.1182L13.7344 67.0902V32.9098L23.8996 38.7548C24.0267 38.3736 24.1537 37.8653 24.4079 37.4841C24.7891 36.9759 25.2973 36.7217 25.8056 36.4676C26.4409 36.3405 26.9492 36.2135 27.5845 36.2135C28.7281 36.2135 29.8717 36.4676 30.8882 36.9759C30.7611 36.5947 30.7611 36.3405 30.6341 35.9593C30.507 35.4511 30.3799 34.9428 30.2529 34.4346L17.0381 26.8107L46.7713 9.91106V25.7942C47.1525 25.1588 47.4066 24.6506 47.6607 24.0152C48.8043 21.7281 49.3126 19.1868 49.1855 16.7726C49.1855 16.1372 49.4396 15.3748 49.8208 14.8666C50.3291 14.3583 50.8374 13.9771 51.5997 13.9771C51.7268 13.9771 51.8539 13.9771 51.9809 13.9771C52.6163 13.9771 53.1245 14.2313 53.6328 14.4854V9.91106L83.2389 26.9377L76.7586 30.7497C76.1233 31.8933 75.4879 32.9098 74.7255 33.7992C73.8361 34.8158 72.9466 35.7052 71.803 36.4676L71.676 36.5947C70.7865 37.23 70.0241 37.7383 69.1347 38.3736C70.0241 38.5006 70.9136 38.6277 71.676 38.6277C72.3113 38.6277 72.8196 38.5006 73.3278 38.3736C73.709 38.2465 74.0902 38.1194 74.4714 38.1194C74.8526 38.1194 75.3609 38.2465 75.7421 38.3736C75.9962 38.5006 76.2503 38.6277 76.3774 38.8818L86.7967 32.9098L86.6696 66.9632Z" fill="#009961"/>
</g>
<path d="M83.8742 51.7154C83.8742 51.5883 83.7471 51.4612 83.6201 51.4612C83.2389 51.4612 82.9847 51.4612 82.6035 51.4612C80.0623 51.4612 77.521 50.8259 75.1067 49.6823C74.2173 49.3011 73.3278 48.7929 72.4384 48.2846C71.4218 47.6493 70.4053 47.141 69.3888 46.6328C68.1182 46.1245 66.9746 45.7433 65.9581 45.6163C65.7039 45.6163 65.5769 45.6163 65.4498 45.6163C65.1957 45.6163 64.9415 45.6163 64.6874 45.6163C64.4333 45.6163 64.3062 45.7433 64.0521 45.7433C64.9415 44.5997 66.0851 44.2185 67.4828 43.9644C67.864 43.9644 68.3723 43.8374 68.7535 43.8374C68.8805 43.8374 69.0076 43.8374 69.1347 43.8374C69.77 43.7103 70.4053 43.7103 71.0407 43.5832C72.3113 43.3291 73.9631 42.4396 74.7255 41.0419C74.7255 40.9149 74.7255 40.7878 74.7255 40.7878C74.7255 40.7878 74.7255 40.7878 74.5985 40.7878H74.4714H74.3443C73.8361 41.0419 73.2008 41.169 72.5654 41.169C72.3113 41.169 72.0572 41.169 71.803 41.169C70.7865 41.169 69.6429 41.0419 68.4994 40.7878C68.2452 40.7878 67.9911 40.6607 67.864 40.6607C66.8475 40.5337 65.831 40.4066 64.8145 40.4066C63.5438 40.4066 62.4002 40.6607 61.5108 41.2961C62.5273 39.263 64.1792 38.3736 65.7039 37.4841C67.4828 36.5947 68.8806 35.5781 70.4053 34.4346L70.5324 34.3075C70.7865 34.1804 70.9136 33.9263 71.1677 33.7992C71.803 33.291 72.4384 32.6557 72.9466 32.0203C73.9631 30.7497 74.8526 29.2249 75.4879 27.5731C75.4879 27.446 75.4879 27.3189 75.3609 27.3189H75.2338C75.1067 27.3189 75.1067 27.3189 75.1067 27.446C73.2008 29.6061 70.6595 31.2579 67.864 32.1474C66.9746 32.5286 65.9581 32.7827 64.9415 32.9098C63.798 33.1639 62.6544 33.5451 61.6379 33.9263C59.4778 34.6887 57.953 35.8323 57.1906 37.23C56.9365 35.324 58.08 34.0534 59.2236 32.5286C59.7319 31.8933 60.2401 31.385 60.6213 30.6226C61.2567 29.479 61.892 27.8272 61.5108 26.3024C61.5108 26.1753 61.3837 26.0483 61.2567 26.0483C61.1296 26.0483 61.0025 26.1753 61.0025 26.1753C60.3672 27.9543 58.5883 29.2249 56.9365 30.4956C56.8094 30.6226 56.5553 30.7497 56.4282 30.8767C55.9199 31.2579 55.2846 31.7662 54.7764 32.2745C54.5222 32.5286 54.3952 32.6557 54.141 32.9098C53.2516 33.7992 52.6163 34.8158 52.4892 35.9593C51.8539 33.7992 52.2351 32.0203 52.8704 30.3685C53.5057 28.4625 53.7598 26.8107 54.141 24.9047V24.7776C54.141 24.3964 54.2681 24.0152 54.2681 23.6341C54.2681 22.9987 54.2681 22.4905 54.2681 21.8551C54.141 20.0762 53.6328 18.2973 52.8704 16.5184C52.8704 16.3914 52.7433 16.3914 52.6163 16.3914C52.4892 16.3914 52.3621 16.5184 52.3621 16.6455C52.4892 19.4409 51.9809 22.4905 50.5832 25.1588C50.202 26.0483 49.6938 26.9377 49.1855 27.8272C48.5502 28.8437 48.0419 29.8602 47.5337 30.8767C47.5337 30.8767 47.5337 31.0038 47.4066 31.0038C47.1525 31.6391 46.8983 32.2745 46.7713 32.9098C46.5171 34.1804 46.3901 35.324 46.6442 36.3405C45.1194 35.197 44.9924 33.418 44.7382 31.6391C44.6112 30.8767 44.6112 30.1144 44.357 29.352C44.1029 28.0813 43.2135 26.4295 41.8157 25.6671H41.6887C41.5616 25.6671 41.5616 25.6671 41.4345 25.7942C41.3075 25.9212 41.3075 26.0483 41.4345 26.0483C42.1969 27.8272 41.8157 29.8602 41.5616 32.0203C41.5616 32.2745 41.4345 32.5286 41.4345 32.6557C41.1804 34.8158 40.7992 37.3571 42.0699 39.0089C40.0368 37.9924 39.1474 36.3405 38.385 34.8158C37.4955 33.0368 36.479 31.6391 35.3354 30.1144L35.2084 29.9873C33.6836 27.8272 31.3964 26.1753 28.4739 25.0318H28.3469C28.2198 25.0318 28.2198 25.0318 28.0927 25.1588C27.9657 25.2859 28.0927 25.413 28.0927 25.54C30.2528 27.446 31.9047 29.9873 32.7941 32.7827C33.1753 33.6722 33.4295 34.6887 33.5565 35.7052C33.6836 35.9593 33.6836 36.3405 33.8107 36.5947C34.0648 37.3571 34.3189 38.2465 34.5731 39.0089C35.3354 41.169 36.479 42.6938 37.8767 43.4562C37.6226 43.4562 37.4955 43.4562 37.3685 43.4562C35.8437 43.4562 34.5731 42.4396 33.3024 41.4231C32.6671 40.9149 32.1588 40.4066 31.3964 40.0254C30.507 39.5172 29.3634 39.0089 28.2198 39.0089C27.8386 39.0089 27.4574 39.0089 27.0762 39.136C26.9492 39.136 26.8221 39.263 26.8221 39.3901C26.8221 39.5172 26.9492 39.6442 26.9492 39.6442C28.2198 40.1525 29.1093 41.169 30.1258 42.1855C30.507 42.5667 30.8882 43.075 31.1423 43.5832L31.2694 43.7103C31.3964 43.8374 31.5235 44.0915 31.6506 44.2186C32.9212 45.9975 34.573 48.0305 36.6061 48.2846C35.8437 48.5388 35.0813 48.6658 34.446 48.6658C33.1753 48.6658 32.0318 48.2846 31.0152 48.0305C29.1093 47.3952 27.4574 47.141 25.5514 46.7598H25.4244C24.7891 46.6328 24.1537 46.6328 23.3913 46.6328C21.3583 46.6328 19.3253 47.141 17.1652 48.0305C17.0381 48.0305 16.911 48.1576 17.0381 48.2846C17.0381 48.4117 17.1652 48.5388 17.2922 48.5388C17.6734 48.5388 17.9276 48.5388 18.3088 48.5388C20.85 48.5388 23.3913 49.1741 25.8056 50.3177C26.695 50.6989 27.5845 51.2071 28.4739 51.7154C29.4905 52.3507 30.507 52.859 31.5235 53.3672C32.7941 53.8755 33.9377 54.2567 34.9542 54.3837C35.2084 54.3837 35.3354 54.3837 35.4625 54.3837C35.7166 54.3837 35.9708 54.3837 36.2249 54.3837C36.479 54.3837 36.6061 54.2567 36.8602 54.2567C35.9708 55.4003 34.8272 55.7814 33.4295 56.0356C33.0483 56.0356 32.54 56.1626 32.1588 56.1626C32.0318 56.1626 31.9047 56.1626 31.7776 56.1626C31.1423 56.2897 30.507 56.2897 29.8717 56.4168C28.601 56.6709 26.9492 57.5604 26.1868 58.9581C26.1868 59.0851 26.1868 59.2122 26.1868 59.2122C26.1868 59.2122 26.1868 59.2122 26.3138 59.2122H26.4409H26.568C27.0762 58.9581 27.7115 58.831 28.3469 58.831C28.601 58.831 28.8551 58.831 29.1093 58.831C30.1258 58.831 31.2694 58.9581 32.4129 59.2122C32.6671 59.2122 32.9212 59.3393 33.0483 59.3393C34.0648 59.4663 35.0813 59.5934 36.0978 59.5934C37.3685 59.5934 38.5121 59.3393 39.4015 58.7039C38.385 60.737 36.7332 61.6264 35.2084 62.3888C33.4295 63.2783 32.0318 64.2948 30.507 65.4384L30.3799 65.5654C30.1258 65.6925 29.9987 65.9466 29.7446 66.0737C29.1093 66.582 28.4739 67.2173 27.9657 67.8526C26.9492 69.1233 26.0597 70.648 25.4244 72.2999C25.4244 72.4269 25.4244 72.554 25.5514 72.554H25.6785C25.8056 72.554 25.8056 72.554 25.8056 72.4269C27.7116 70.2668 30.2528 68.615 33.0483 67.7255C33.9377 67.3443 34.9542 67.0902 35.9708 66.9632C37.1143 66.709 38.2579 66.3278 39.2744 65.9466C41.4345 65.1842 42.9593 64.0407 43.7217 62.643C43.9758 64.5489 42.8323 65.8196 41.6887 67.3443C41.1804 67.9797 40.6722 68.4879 40.291 69.2503C39.6556 70.3939 39.0203 72.0457 39.4015 73.5705C39.4015 73.6976 39.5286 73.8246 39.6556 73.8246C39.7827 73.8246 39.9098 73.6976 39.9098 73.6976C40.5451 71.9187 42.324 70.648 43.9758 69.3774C44.1029 69.2503 44.357 69.1233 44.4841 68.9962C44.9924 68.615 45.6277 68.1067 46.1359 67.5985C46.3901 67.3444 46.5171 67.2173 46.7713 66.9632C47.6607 66.0737 48.4231 65.0572 48.5502 63.9136C49.1855 66.0737 48.8043 67.8526 48.169 69.5045C47.5337 71.4104 47.2795 73.0623 46.8983 74.9682V75.0953C46.7713 75.6036 46.7713 75.9848 46.7713 76.493C46.7713 76.8742 46.7713 77.2554 46.7713 77.6366C46.8983 79.4155 47.2795 81.4485 48.169 83.3545C48.169 83.4816 48.296 83.4816 48.4231 83.4816C48.5502 83.4816 48.6772 83.3545 48.6772 83.2274C48.5502 80.432 49.0584 77.3825 50.4562 74.7141C50.8373 73.8247 51.3456 72.9352 51.8539 72.0457C52.4892 71.0292 52.9974 70.0127 53.5057 68.9962V68.8691C53.7598 68.2338 54.014 67.5985 54.141 67.0902C54.5222 65.8196 54.5222 64.676 54.2681 63.5324C55.7929 64.676 55.9199 66.4549 56.1741 68.2338C56.3011 68.9962 56.3011 69.7586 56.5553 70.521C56.8094 71.7916 57.6988 73.4435 59.0966 74.2058H59.2236C59.3507 74.2058 59.3507 74.2058 59.4778 74.0788C59.6048 73.9517 59.6048 73.8246 59.4778 73.8246C58.7154 72.0457 59.0966 70.0127 59.3507 67.8526C59.3507 67.5985 59.4778 67.3443 59.4778 67.2173C59.7319 65.0572 60.1131 62.5159 58.8424 60.864C60.8755 61.8806 61.7649 63.5324 62.6544 65.0572C63.5438 66.8361 64.5603 68.2338 65.7039 69.7586L65.831 69.8856C67.3558 72.0457 69.6429 73.6976 72.5654 74.8412H72.6925C72.8196 74.8412 72.8196 74.8412 72.9466 74.7141C73.0737 74.587 72.9466 74.46 72.9466 74.3329C70.7865 72.4269 69.1347 69.8856 68.2452 67.0902C67.864 66.2008 67.6099 65.1842 67.4828 64.1677C67.3558 63.9136 67.3558 63.5324 67.2287 63.2783C66.9746 62.5159 66.7204 61.6264 66.4663 60.864C65.7039 58.7039 64.5603 57.1792 63.1626 56.4168C63.2897 56.4168 63.5438 56.4168 63.6709 56.4168C65.1957 56.4168 66.4663 57.4333 67.737 58.4498C68.3723 58.9581 68.8805 59.4663 69.6429 59.8475C70.5324 60.3558 71.676 60.864 72.8196 60.864C73.2008 60.864 73.5819 60.864 73.9631 60.737C74.0902 60.737 74.2173 60.6099 74.2173 60.4828C74.2173 60.3558 74.0902 60.2287 74.0902 60.2287C72.8196 59.7205 71.9301 58.7039 70.9136 57.6874C70.5324 57.3062 70.1512 56.798 69.8971 56.2897L69.77 56.1626C69.6429 56.0356 69.5159 55.7814 69.3888 55.6544C68.1182 53.8755 66.4663 51.8424 64.4333 51.5883C65.1957 51.3342 65.9581 51.2071 66.5934 51.2071C67.864 51.2071 69.0076 51.5883 70.0241 51.8424C71.9301 52.4778 73.582 52.7319 75.4879 53.1131H75.615C76.2503 53.2402 76.8856 53.2402 77.648 53.2402C79.6811 53.2402 81.7141 52.7319 83.8742 51.8424C83.7471 51.9695 83.8742 51.8424 83.8742 51.7154ZM59.3507 59.9746C56.8094 62.3888 53.3786 63.7865 49.8208 63.6595C46.263 63.5324 42.9593 62.1347 40.418 59.5934C38.0038 57.0521 36.6061 53.6213 36.7332 50.0635C36.7332 47.5222 37.4955 45.108 38.8933 42.9479C39.0203 42.6938 39.1474 42.5667 39.2744 42.3126L39.4015 42.1855C39.7827 41.6773 40.291 41.169 40.6722 40.6607C43.2135 38.2465 46.6442 36.8488 50.202 36.9759C53.7598 37.1029 57.0635 38.5006 59.6048 41.0419C62.0191 43.5832 63.4168 47.014 63.2897 50.5718C63.1626 54.1296 61.892 57.4333 59.3507 59.9746Z" fill="#009961"/>
<path d="M48.0419 52.0966C48.0419 52.0966 48.169 52.0966 48.169 52.2237C48.6773 52.3507 49.0584 52.4778 49.3126 52.4778C49.4396 52.4778 49.5667 52.4778 49.6938 52.4778C49.8208 52.4778 49.8208 52.4778 49.8208 52.4778C49.8208 52.4778 49.8208 52.6048 49.6938 52.6048C49.6938 52.6048 49.6938 52.6048 49.5667 52.7319C49.5667 52.7319 49.5667 52.7319 49.6938 52.7319C49.8208 52.7319 50.075 52.7319 50.202 52.7319C50.5832 52.7319 50.9644 52.7319 51.2186 52.7319C51.5997 52.7319 51.8539 52.7319 52.2351 52.7319C52.8704 52.7319 53.5057 52.7319 54.141 52.6048C54.3952 52.6048 54.7764 52.4778 55.0305 52.3507C55.2846 52.2237 55.5388 52.0966 55.7929 51.9695C56.3011 51.7154 56.6823 51.4613 57.0635 51.0801L57.1906 50.953C56.9365 51.0801 56.4282 51.3342 55.7929 51.4613C55.2846 51.5883 54.5222 51.8425 53.7598 51.9695C52.9975 52.0966 52.108 52.2237 51.2186 52.2237C50.3291 52.2237 49.4396 52.2237 48.6773 52.2237C48.5502 52.2237 48.2961 52.0966 48.0419 52.0966Z" fill="#009961"/>
<path d="M53.1245 53.8755C53.1245 53.8755 52.9975 53.8755 52.8704 53.8755C52.7433 53.8755 52.6163 53.8755 52.6163 54.0025C52.7433 54.0025 52.7433 54.0025 52.7433 54.0025C52.8704 53.8755 52.9975 53.8755 53.1245 53.8755Z" fill="#009961"/>
<path d="M45.2465 49.047C44.9924 49.047 44.7383 48.92 44.4841 48.92C44.7383 49.047 44.8653 49.047 45.1195 49.1741C45.2465 49.1741 45.3736 49.3011 45.5006 49.3011C45.6277 49.3011 45.6277 49.3011 45.7548 49.3011C46.0089 49.3011 46.3901 49.3011 46.6442 49.3011H47.0254C47.1525 49.3011 47.2796 49.3011 47.4066 49.3011H47.5337C47.0254 49.3011 46.5172 49.3011 46.0089 49.1741C45.6277 49.1741 45.3736 49.1741 45.2465 49.047Z" fill="#009961"/>
<path d="M50.3291 43.7103C50.2021 43.7103 50.2021 43.7103 50.075 43.5832C49.9479 43.5832 49.9479 43.7103 49.8209 43.7103C50.075 43.8374 50.3291 44.0915 50.4562 44.2186C50.5833 44.2186 50.7103 44.0915 50.8374 44.0915L50.3291 43.7103Z" fill="#009961"/>
<path d="M51.4727 49.6823C51.5997 49.6823 51.7268 49.5553 51.8539 49.5553H51.9809C51.9809 49.5553 51.9809 49.5553 51.8539 49.5553C51.5997 49.5553 51.3456 49.5553 51.0915 49.6823C51.3456 49.6823 51.3456 49.6823 51.4727 49.6823Z" fill="#009961"/>
<path d="M46.0089 53.4943C46.263 53.6213 46.6442 53.6213 46.8983 53.7484C46.6442 53.7484 46.5171 53.6213 46.263 53.6213C46.136 53.4943 46.0089 53.4943 46.0089 53.4943C46.0089 53.4943 45.8818 53.3672 45.7548 53.3672C45.7548 53.4943 45.8818 53.4943 46.0089 53.4943Z" fill="#009961"/>
<path d="M47.5336 51.0801C47.4066 51.0801 47.2795 50.953 47.0254 50.8259C46.8983 50.8259 46.6442 50.8259 46.5171 50.8259C46.3901 50.8259 46.263 50.8259 46.1359 50.8259L46.263 50.953C46.6442 51.0801 47.1524 51.0801 47.5336 51.0801Z" fill="#009961"/>
<path d="M51.4727 54.0025C51.5997 54.0025 51.5998 54.0025 51.7268 54.0025H51.8539C52.108 54.0025 52.3621 53.8755 52.6163 53.8755C52.3621 53.8755 52.108 53.8755 51.8539 53.8755H51.7268C51.5998 53.8755 51.3456 53.8755 51.0915 54.0025H51.2186C51.2186 54.0025 51.3456 54.0025 51.4727 54.0025Z" fill="#009961"/>
<path d="M47.4066 47.3952C47.4066 47.5222 47.5337 47.5222 47.5337 47.6493H47.6607C47.6607 47.6493 47.5337 47.5222 47.4066 47.3952Z" fill="#009961"/>
<path d="M47.5336 44.5998C47.4066 44.5998 47.4066 44.7268 47.2795 44.7268C47.1525 44.7268 47.1525 44.8539 47.0254 44.8539C47.4066 44.981 47.6607 44.981 48.0419 45.108C48.169 45.108 48.169 45.108 48.296 44.981H48.4231C48.169 44.8539 47.7878 44.8539 47.5336 44.7268C47.5336 44.5998 47.5336 44.5998 47.5336 44.5998Z" fill="#009961"/>
<path d="M47.7878 40.0254C47.7878 40.0254 47.6607 40.0254 47.6607 40.1525C47.6607 40.1525 47.5336 40.1525 47.5336 40.2796C47.5336 40.2796 47.4066 40.2795 47.2795 40.4066C47.1524 40.4066 47.0254 40.5337 46.8983 40.5337C47.4066 40.4066 47.7878 40.2796 48.169 40.2796C48.169 40.2796 48.169 40.2796 48.296 40.2796H48.169C48.0419 40.1525 47.9148 40.1525 47.7878 40.0254Z" fill="#009961"/>
<path d="M53.3787 44.7268C53.5057 44.7268 53.6328 44.7268 53.7599 44.7268C53.8869 44.7268 53.8869 44.7268 54.014 44.7268C53.6328 44.5997 53.1245 44.4727 52.7433 44.3456H52.6163C52.7433 44.4727 52.8704 44.4727 52.9975 44.5997C53.1245 44.5997 53.1245 44.7268 53.2516 44.7268C53.1245 44.8539 53.2516 44.8539 53.3787 44.7268Z" fill="#009961"/>
<path d="M46.3901 46.6328C46.263 46.6328 46.263 46.6328 46.1359 46.7598C46.263 46.8869 46.3901 46.8869 46.5171 47.014C46.5171 47.014 46.6442 47.014 46.6442 46.8869C46.6442 46.7598 46.5171 46.7598 46.3901 46.6328Z" fill="#009961"/>
<path d="M55.7929 42.5667C55.5387 42.4396 55.2846 42.3126 55.1575 42.3126C55.0305 42.3126 55.0305 42.1855 54.9034 42.1855C54.9034 42.1855 54.9034 42.1855 54.7763 42.1855C54.6493 42.1855 54.6493 42.1855 54.5222 42.1855H54.3951C54.6493 42.3126 54.7763 42.4396 55.0305 42.4396C55.1575 42.4396 55.1575 42.5667 55.2846 42.5667C55.7929 42.6938 56.5552 42.9479 57.4447 43.3291C57.4447 43.3291 57.5718 43.3291 57.5718 43.4562C57.1906 43.202 56.9364 43.075 56.4282 42.8208C56.1741 42.8208 55.9199 42.6938 55.7929 42.5667Z" fill="#009961"/>
<path d="M49.1855 49.8094C48.8043 49.8094 48.4231 49.9365 48.0419 49.9365C48.4231 49.9365 48.8043 49.9365 49.1855 49.8094C49.3126 49.9365 49.4396 49.9365 49.4396 49.9365C49.3126 49.9365 49.3126 49.9365 49.1855 49.8094Z" fill="#009961"/>
<path d="M50.7103 54.0025C51.0915 54.0025 51.3456 54.0025 51.4727 53.8755C50.9644 53.8755 50.4561 53.8755 49.9479 53.8755C50.0749 53.8755 50.0749 53.8755 50.202 53.8755C50.3291 53.8755 50.3291 53.8755 50.4561 53.8755C50.4561 54.0025 50.5832 54.0025 50.7103 54.0025Z" fill="#009961"/>
<path d="M55.2846 53.7484C55.6658 53.6213 56.047 53.3672 56.4282 53.2401H56.3011C56.3011 53.2401 56.174 53.2401 56.174 53.3672C56.174 53.3672 56.174 53.3672 56.047 53.3672H55.9199L55.5387 53.4943C55.1575 53.6213 54.6493 53.7484 54.141 53.8755C54.3951 53.8755 54.6493 53.7484 55.0304 53.6213C55.1575 53.8755 55.2846 53.7484 55.2846 53.7484Z" fill="#009961"/>
<path d="M53.7598 53.7484C53.6327 53.7484 53.6327 53.7484 53.5057 53.7484C53.5057 53.8755 53.5057 53.8755 53.7598 53.7484C53.6327 53.8755 53.6327 53.7484 53.7598 53.7484Z" fill="#009961"/>
<path d="M53.3787 54.0025C53.6328 54.0025 53.7599 54.0025 54.014 53.8755C54.6493 53.7484 55.1576 53.6213 55.6658 53.3672C55.7929 53.3672 55.92 53.2401 56.047 53.2401H56.1741C56.1741 53.2401 56.1741 53.2401 56.3012 53.2401H56.1741C56.1741 53.2401 56.1741 53.2401 56.047 53.2401C55.6658 53.3672 55.1576 53.4943 54.6493 53.6213C54.3952 53.7484 54.014 53.7484 53.7599 53.8755C53.5057 53.8755 53.5057 54.0025 53.3787 54.0025Z" fill="#009961"/>
<path d="M40.4181 51.3342C40.291 51.3342 40.291 51.2071 40.291 51.2071C40.5451 51.4613 40.7993 51.7154 41.0534 51.9695C41.4346 52.2236 41.6887 52.4778 41.9429 52.6048C42.0699 52.6048 42.0699 52.6048 42.197 52.7319C42.0699 52.6048 41.9429 52.6048 41.8158 52.4778C41.3075 52.0966 40.7993 51.7154 40.4181 51.3342Z" fill="#009961"/>
<path d="M44.7382 53.1131C44.6112 53.1131 44.357 52.986 44.23 52.986C43.8488 52.859 43.5946 52.7319 43.3405 52.6048C43.7217 52.859 44.1029 52.986 44.4841 53.1131C44.357 53.1131 44.4841 53.1131 44.7382 53.1131C44.8653 53.2401 44.9924 53.3672 45.2465 53.3672C45.1194 53.3672 45.1194 53.2402 44.9924 53.2402C44.8653 53.1131 44.7382 53.1131 44.7382 53.1131Z" fill="#009961"/>
<path d="M45.2466 53.2402C45.1195 53.2402 44.9924 53.1131 44.9924 53.1131C45.1195 53.2402 45.1195 53.2402 45.2466 53.2402C45.3736 53.3672 45.3736 53.3672 45.5007 53.3672C45.3736 53.2402 45.3736 53.2402 45.2466 53.2402Z" fill="#009961"/>
<path d="M44.7383 53.3672C44.8653 53.3672 44.8653 53.3672 44.7383 53.3672C44.7383 53.3672 44.6112 53.2401 44.4841 53.2401H44.3571L44.4841 53.3672C44.6112 53.3672 44.7383 53.3672 44.7383 53.3672Z" fill="#009961"/>
<path d="M42.8323 52.7319C42.7052 52.7319 42.7052 52.7319 42.8323 52.7319C42.7052 52.7319 42.7052 52.7319 42.7052 52.7319C42.9593 52.859 43.2135 52.986 43.4676 53.1131C43.8488 53.2402 44.23 53.3672 44.4841 53.3672L44.3571 53.2402C43.9759 53.1131 43.4676 52.859 42.9593 52.6048C42.5781 52.3507 42.324 52.2236 42.0699 51.9695L41.9428 51.8424C41.8158 51.7154 41.5616 51.5883 41.4346 51.5883C41.3075 51.4613 41.1804 51.3342 40.9263 51.3342C40.6722 51.0801 40.418 50.953 40.0369 50.6989C39.6557 50.4447 39.4015 50.1906 39.1474 49.9365C39.2745 50.0635 39.2745 50.1906 39.4015 50.3177L39.5286 50.4447C39.7827 50.6989 40.0369 50.953 40.418 51.3342C40.7992 51.7154 41.3075 51.9695 41.8158 52.3507C42.0699 52.4778 42.324 52.6048 42.4511 52.7319C42.5782 52.6048 42.5782 52.6048 42.8323 52.7319C42.7052 52.6048 42.7052 52.6048 42.8323 52.7319C42.8323 52.6048 42.8323 52.6048 42.8323 52.7319C42.9593 52.7319 42.9593 52.7319 42.9593 52.7319C42.9593 52.6048 42.9593 52.6048 42.8323 52.7319Z" fill="#009961"/>
<path d="M50.075 54.0026C49.9479 54.0026 49.9479 54.0026 49.8208 53.8755H49.6938H49.5667C48.5502 53.8755 47.6607 53.7484 46.6442 53.6214C46.3901 53.6214 46.0089 53.4943 45.7548 53.4943H45.8818C46.0089 53.4943 46.0089 53.4943 46.136 53.6214C46.263 53.6214 46.5171 53.7484 46.7713 53.7484C47.1525 53.8755 47.6607 54.0026 48.169 54.0026C48.2961 54.0026 48.2961 54.0026 48.4231 54.0026C48.5502 54.0026 48.8043 54.0026 48.9314 54.0026C48.9314 54.0026 48.9314 54.0026 48.8043 54.0026C48.6773 54.0026 48.5502 54.0026 48.4231 54.0026H48.2961H48.169H48.0419C47.9149 54.0026 47.6607 54.0026 47.5337 53.8755C47.4066 53.8755 47.2795 53.8755 47.2795 53.7484C47.4066 53.7484 47.4066 53.7484 47.5337 53.7484C47.6607 53.7484 47.7878 53.7484 48.0419 53.8755H48.169H48.2961H48.4231H48.8043C49.0584 53.8755 49.3126 53.8755 49.5667 54.0026C49.6938 54.0026 49.8208 54.0026 49.9479 54.0026H50.075Z" fill="#009961"/>
<path d="M44.9923 53.6214C45.1194 53.7484 45.3735 53.7484 45.6277 53.7484C46.1359 53.8755 46.6442 54.0026 47.2795 54.1296C47.4066 54.1296 47.6607 54.1296 47.9148 54.2567C48.296 54.2567 48.6772 54.2567 48.9313 54.2567C49.0584 54.2567 49.3125 54.2567 49.4396 54.2567C49.1855 54.2567 48.9313 54.2567 48.6772 54.1296C48.4231 54.1296 48.0419 54.1296 47.6607 54.0026C47.0254 53.8755 46.5171 53.7484 46.0089 53.6214C45.8818 53.6214 45.7547 53.4943 45.6277 53.4943C45.7547 53.4943 46.0089 53.6214 46.1359 53.6214C46.263 53.6214 46.263 53.6214 46.3901 53.6214H46.5171C46.7712 53.6214 46.7712 53.7484 46.7712 53.7484C46.7712 53.7484 46.6442 53.7484 46.5171 53.7484H46.3901C46.3901 53.7484 46.263 53.7484 46.1359 53.7484C46.0089 53.7484 45.8818 53.6214 45.6277 53.6214L45.1194 53.4943C45.1194 53.4943 45.1194 53.4943 44.9923 53.6214C44.9923 53.4943 44.8653 53.4943 44.7382 53.4943C44.7382 53.4943 44.7382 53.4943 44.6111 53.4943C44.6111 53.4943 44.6111 53.4943 44.7382 53.4943C44.8653 53.4943 44.9923 53.4943 44.9923 53.6214Z" fill="#009961"/>
<path d="M59.3507 49.9365C59.2236 49.9365 59.2236 50.0635 59.0966 50.0635C58.9695 50.0635 58.8424 50.1906 58.7154 50.1906C58.5883 50.3177 58.5883 50.4447 58.4613 50.5718C58.2071 50.953 57.8259 51.3342 57.4447 51.7154C57.0635 52.0966 56.5553 52.4778 56.047 52.7319C55.7929 52.859 55.5388 52.986 55.1576 53.1131C54.9034 53.2401 54.5222 53.3672 54.2681 53.3672C53.6328 53.4943 52.9975 53.6213 52.2351 53.6213C51.8539 53.6213 51.4727 53.6213 51.2186 53.6213C50.9644 53.6213 50.7103 53.6213 50.4562 53.6213C50.4562 53.6213 50.4562 53.6213 50.3291 53.6213C50.202 53.6213 50.202 53.6213 50.075 53.6213C49.8208 53.6213 49.4397 53.6213 48.9314 53.6213C48.8043 53.6213 48.6773 53.6213 48.5502 53.6213H48.4231H48.169C48.0419 53.6213 47.9149 53.6213 47.9149 53.6213C47.7878 53.6213 47.6607 53.6213 47.6607 53.6213H47.4066C47.1525 53.6213 47.0254 53.6213 46.7713 53.4943H46.6442C47.6607 53.6213 48.8043 53.7484 49.9479 53.8755C50.9644 53.8755 51.9809 54.0025 52.8704 53.8755C53.3787 53.8755 53.7599 53.8755 54.141 53.7484C54.2681 53.7484 54.2681 53.7484 54.3952 53.7484C54.7764 53.7484 55.1576 53.6213 55.5388 53.4943C55.6658 53.4943 55.7929 53.3672 55.92 53.3672C55.92 53.3672 56.047 53.2401 56.1741 53.2401C56.4282 53.1131 56.6823 52.986 57.0635 52.8589C57.4447 52.7319 57.8259 52.4778 58.2071 52.0966C58.5883 51.8424 59.0966 51.4612 59.4778 50.953C59.7319 50.6988 59.859 50.5718 60.1131 50.3177C59.986 50.3177 59.986 50.3177 59.859 50.3177C59.859 50.3177 59.859 50.1906 59.859 50.0635C59.6048 49.8094 59.4778 49.9365 59.3507 49.9365Z" fill="#009961"/>
<path d="M38.5121 49.1741C38.6391 49.3011 38.6391 49.3011 38.7662 49.4282C38.7662 49.4282 38.7662 49.3011 38.6391 49.3011C38.6391 49.1741 38.6391 49.047 38.5121 49.1741Z" fill="#009961"/>
<path d="M39.0203 50.0635C39.0203 50.1906 39.1474 50.1906 39.1474 50.3177C39.1474 50.3177 39.1474 50.4447 39.2745 50.4447C39.2745 50.4447 39.2745 50.5718 39.4015 50.5718C39.5286 50.6989 39.5286 50.6989 39.5286 50.8259C39.5286 50.6989 39.4015 50.6989 39.4015 50.5718C39.1474 50.3177 39.0203 50.0635 39.0203 50.0635C38.8933 50.0635 38.8933 49.9365 39.0203 50.0635Z" fill="#009961"/>
<path d="M39.0201 49.6823L39.1465 49.8088C39.0201 49.8088 39.0201 49.8088 39.0201 49.6823Z" fill="#009961"/>
<path d="M40.0369 48.1576C40.1639 48.5388 40.291 48.7929 40.5451 49.047C40.6722 49.1741 40.6722 49.1741 40.7993 49.3011C40.9263 49.3011 40.9263 49.3011 41.0534 49.4282C41.1804 49.4282 41.3075 49.5553 41.3075 49.5553C41.0534 49.3011 40.9263 49.1741 40.6722 48.9199C40.5451 48.7929 40.4181 48.6658 40.4181 48.5388L40.291 48.4117C40.1639 48.2846 40.0369 48.0305 40.0369 47.9034V48.0305V48.1576Z" fill="#009961"/>
<path d="M39.0203 48.2846L39.1474 48.4117C39.1474 48.2846 39.1474 48.2846 39.0203 48.2846V48.0305C39.0203 47.9034 39.0203 47.7764 39.0203 47.6493V47.5222C39.0203 47.6493 38.8932 47.7764 38.8932 47.7764V47.9034V48.0305C38.8932 48.1576 39.0203 48.1576 39.0203 48.2846Z" fill="#009961"/>
<path d="M40.1639 50.4447C40.291 50.5718 40.5451 50.6989 40.6722 50.8259L40.5451 50.6989C40.418 50.5718 40.418 50.5718 40.1639 50.4447C40.1639 50.3177 40.1639 50.1906 40.0368 50.1906L39.9098 50.0635C39.6556 49.9365 39.4015 49.6823 39.1474 49.5553L39.0203 49.4282L38.8932 49.3011C38.8932 49.3011 38.8932 49.4282 39.0203 49.4282C39.2744 49.8094 39.7827 50.1906 40.1639 50.4447Z" fill="#009961"/>
<path d="M38.0038 50.0635C38.0038 50.1906 38.0038 50.3177 38.0038 50.4447C38.1309 50.4447 38.258 50.5718 38.385 50.6988C38.258 50.5718 38.1309 50.3177 38.0038 50.0635Z" fill="#009961"/>
<path d="M38.8932 50.4447C39.1474 50.8259 39.4015 51.2071 39.5286 51.4612C39.6556 51.5883 39.9097 51.7154 40.1639 51.8424C40.418 51.9695 40.6721 52.0966 41.0533 52.3507C40.7992 52.0966 40.6721 51.9695 40.6721 51.9695C40.6721 51.9695 41.0533 52.2236 41.3075 52.4778C41.4345 52.6048 41.5616 52.6048 41.6887 52.7319C42.1969 52.986 42.8322 53.2401 43.3405 53.3672C43.3405 53.3672 43.4676 53.3672 43.7217 53.4943C43.8488 53.4943 43.9758 53.6213 44.1029 53.6213C44.357 53.7484 44.4841 53.7484 44.6111 53.7484C45.3735 54.0025 46.0089 54.0025 46.0089 54.0025C46.0089 54.0025 45.8818 54.0025 45.6277 54.0025C45.5006 54.0025 45.5006 54.0025 45.3735 54.0025H45.5006H45.6277H45.7547C45.8818 54.0025 46.0089 54.0025 46.1359 54.0025C46.263 54.0025 46.5171 54.0025 46.6442 54.0025C46.263 53.8755 45.7547 53.8755 45.5006 53.7484C45.2465 53.7484 45.1194 53.6213 44.8653 53.4943C44.7382 53.4943 44.7382 53.3672 44.6111 53.3672L44.4841 53.2402C44.357 53.2402 44.23 53.2401 43.9758 53.1131C43.8488 53.1131 43.7217 52.986 43.5946 52.986C43.4676 52.986 43.3405 52.859 43.2134 52.859C42.8322 52.7319 42.5781 52.6048 42.1969 52.4778C42.0698 52.4778 41.9428 52.4778 41.6887 52.3507C41.4345 52.2236 41.0533 52.0966 40.6721 51.8424C40.2909 51.5883 40.0368 51.3342 39.6556 50.953C39.4015 50.6989 39.2744 50.4447 39.1474 50.1906C39.1474 50.0635 39.0203 50.0635 39.0203 49.9365C39.0203 49.9365 38.8932 49.9365 38.8932 49.8094L38.7662 49.6823C38.8932 49.8094 39.0203 49.9365 39.1474 50.1906C39.4015 50.5718 39.5286 50.8259 39.7827 51.08C39.6556 50.953 39.5286 50.8259 39.4015 50.5718C39.4015 50.5718 39.2744 50.4447 39.0203 50.1906C39.0203 50.1906 39.0203 50.1906 38.8932 50.0635C38.8932 50.0635 38.8932 49.9365 38.7662 49.9365C38.7662 49.8094 38.6391 49.8094 38.6391 49.6823C38.512 49.5553 38.385 49.3011 38.385 49.047V48.9199C38.385 48.7929 38.2579 48.7929 38.2579 48.7929C38.1308 48.6658 38.1308 48.6658 38.0038 48.5388C37.8767 48.4117 37.8767 48.4117 37.8767 48.2846C37.8767 48.4117 37.8767 48.5388 37.8767 48.5388C37.8767 48.6658 38.0038 48.6658 38.0038 48.7929C38.385 49.5553 38.6391 49.9365 38.8932 50.4447Z" fill="#009961"/>
<path d="M38.512 50.8259C38.6391 50.8259 38.7662 50.953 38.8932 51.08L39.0203 51.2071C39.0203 51.2071 39.1474 51.2071 39.1474 51.3342C39.2744 51.3342 39.2744 51.4612 39.4015 51.4612C39.2744 51.2071 39.0203 50.953 38.7662 50.5718C38.512 50.0635 38.2579 49.6823 38.0038 49.4282C38.0038 49.3011 37.8767 49.3011 37.8767 49.1741C37.8767 49.4282 37.8767 49.8094 37.8767 50.0635L38.0038 50.1906C38.1308 50.3177 38.385 50.5718 38.512 50.8259Z" fill="#009961"/>
<path d="M38.385 48.9199C38.385 48.7929 38.385 48.7929 38.385 48.6658C38.2579 48.5388 38.2579 48.4117 38.1309 48.2846C38.1309 48.4117 38.1309 48.4117 38.1309 48.5388C38.1309 48.6658 38.2579 48.7929 38.385 48.9199Z" fill="#009961"/>
<path d="M40.7993 46.2516C40.9263 46.3787 41.0534 46.3787 41.0534 46.5057V46.3787C41.0534 46.3787 41.0534 46.3787 41.0534 46.5057C41.1805 46.5057 41.3075 46.6328 41.5617 46.6328C41.4346 46.5057 41.4346 46.5057 41.3075 46.3787C41.3075 46.3787 41.3075 46.3787 41.1805 46.3787L41.0534 46.2516L40.9263 46.1245H40.7993C40.9263 46.1245 40.7993 46.1245 40.7993 46.2516C40.6722 46.1245 40.6722 46.1245 40.7993 46.2516Z" fill="#009961"/>
<path d="M58.3342 42.9479C58.08 42.6938 57.8259 42.4396 57.5718 42.1855C57.4447 42.0584 57.3177 41.9314 57.1906 41.8043C57.0635 41.6772 56.9365 41.5502 56.6823 41.5502C56.5553 41.4231 56.3011 41.2961 56.1741 41.2961C56.047 41.2961 56.047 41.169 55.9199 41.169C55.7929 41.169 55.7929 41.0419 55.6658 41.0419C55.5387 40.9149 55.2846 40.9149 55.0305 40.7878C54.9034 40.7878 54.7764 40.6607 54.7764 40.6607L54.5222 40.5337C53.7598 40.1525 52.8704 39.8983 51.8539 39.6442C51.7268 39.6442 51.5997 39.6442 51.4727 39.5171C51.3456 39.5171 51.2185 39.5171 51.0915 39.3901C50.9644 39.3901 50.8373 39.3901 50.7103 39.3901C50.5832 39.3901 50.4561 39.3901 50.3291 39.3901C49.8208 39.3901 49.3126 39.263 48.8043 39.263C48.5502 39.263 48.2961 39.263 47.9149 39.263C48.0419 39.263 48.0419 39.263 48.169 39.263C48.2961 39.263 48.5502 39.263 48.8043 39.3901C49.1855 39.3901 49.6938 39.5171 50.075 39.6442C51.4727 39.8983 52.6163 40.2795 53.1245 40.6607L53.2516 40.7878C54.141 41.0419 54.7764 41.2961 55.4117 41.5502C55.5387 41.5502 55.6658 41.6772 55.7929 41.6772C56.3011 41.8043 56.6823 42.0584 56.9365 42.1855C56.9365 42.1855 57.0635 42.1855 57.0635 42.3126C57.1906 42.3126 57.1906 42.4396 57.1906 42.4396C57.3177 42.5667 57.3176 42.5667 57.3176 42.5667H57.1906C57.4447 42.8208 57.5718 42.9479 57.5718 42.9479C57.5718 42.9479 57.5718 42.9479 57.4447 42.9479C57.4447 42.9479 57.4447 42.9479 57.5718 42.9479C57.953 43.202 58.2071 43.4562 58.4612 43.5832C58.7154 43.8373 58.8424 43.9644 58.9695 44.2185C59.0966 44.2185 59.0966 44.3456 59.0966 44.3456C59.6048 44.7268 59.8589 44.9809 59.7319 45.108C59.7319 45.108 59.6048 45.108 59.4778 45.108C59.6048 45.2351 59.6048 45.2351 59.7319 45.3621C59.8589 45.4892 59.986 45.6163 60.1131 45.8704C60.1131 45.9974 60.2401 45.9975 60.2401 46.1245C60.2401 46.2516 60.3672 46.2516 60.3672 46.3786C60.3672 46.5057 60.4943 46.5057 60.4943 46.6328V46.7598C60.4943 46.6328 60.4943 46.3786 60.4943 46.2516C60.4943 46.2516 60.4943 46.2516 60.4943 46.1245V45.9975C60.4943 45.9975 60.4943 45.8704 60.3672 45.8704C60.3672 45.7433 60.2401 45.6163 60.1131 45.4892C59.986 45.3621 59.986 45.2351 59.8589 45.108C59.8589 44.9809 59.7319 44.9809 59.7319 44.8539C59.6048 44.7268 59.3507 44.4727 59.2236 44.2185C59.0966 43.9644 58.8424 43.8373 58.5883 43.5832C58.7154 43.4562 58.5883 43.202 58.3342 42.9479Z" fill="#009961"/>
<path d="M62.1461 48.7929C62.1461 48.6658 62.1461 48.6658 62.1461 48.7929C62.2731 48.6658 62.1461 48.7929 62.1461 49.1741V49.3011V49.4282C62.1461 49.5553 62.019 49.5553 62.019 49.6823C61.8919 49.8094 61.8919 50.0635 61.7649 50.1906C61.6378 50.3177 61.6378 50.3177 61.5107 50.4447C61.5107 50.5718 61.3837 50.5718 61.3837 50.6989C61.3837 50.8259 61.2566 50.8259 61.1295 50.953C61.1295 51.0801 61.1295 51.0801 61.1295 51.2071C61.1295 51.3342 61.0025 51.4612 60.8754 51.5883C60.8754 51.7154 60.7484 51.7154 60.6213 51.8424L60.4942 51.9695C60.4942 51.9695 60.3672 52.0966 60.2401 52.2236C60.113 52.3507 59.8589 52.6048 59.6048 52.859C59.3506 53.1131 59.0965 53.2402 58.8424 53.3672C58.5882 53.4943 58.4612 53.4943 58.4612 53.4943C58.4612 53.4943 58.9694 53.1131 59.4777 52.7319C59.7318 52.6048 59.8589 52.3507 59.986 52.2236C59.8589 52.3507 59.8589 52.3507 59.7318 52.4778C59.6048 52.6048 59.4777 52.6048 59.3506 52.7319L59.2236 52.859L59.0965 52.986C58.5883 53.3672 58.08 53.6214 57.4447 53.8755C56.8093 54.1296 56.174 54.3837 55.6658 54.5108C55.4116 54.6379 55.1575 54.6379 54.9034 54.7649C54.7763 54.7649 54.6492 54.7649 54.5222 54.892H54.3951H54.268C54.141 54.892 54.0139 54.892 54.0139 54.892C53.8869 54.892 53.7598 54.892 53.7598 54.892C53.6327 54.892 53.6327 54.892 53.5057 54.892C53.3786 54.892 53.3786 54.892 53.2515 54.892C52.9974 54.892 52.8703 54.892 52.8703 54.7649C52.8703 54.6379 53.3786 54.3837 54.141 54.1296H54.268H54.3951H54.5222C54.3951 54.1296 54.268 54.1296 54.0139 54.2567H53.7598H53.6327C53.6327 54.2567 53.6327 54.2567 53.5057 54.2567H53.3786C53.2515 54.3837 53.1245 54.3837 52.9974 54.5108C52.8703 54.5108 52.8703 54.6379 52.7433 54.6379C52.6162 54.6379 52.4891 54.6379 52.4891 54.7649C52.235 54.892 51.9809 54.892 51.7268 54.892C51.5997 54.892 51.4726 54.892 51.3456 55.0191C51.2185 55.0191 51.2185 55.0191 51.0914 55.0191C50.9644 55.0191 50.9644 55.0191 50.8373 55.0191C50.202 55.1461 49.5666 55.1461 48.9313 55.1461C48.296 55.1461 47.6607 55.1461 47.0254 55.0191C46.7712 55.0191 46.5171 54.892 46.263 54.892C46.1359 54.892 46.0088 54.892 45.8818 54.7649H45.7547H45.6276C45.5006 54.7649 45.3735 54.6379 45.3735 54.6379C45.2464 54.6379 45.2464 54.5108 45.1194 54.5108H44.9923C44.9923 54.5108 44.9923 54.5108 44.8653 54.5108C44.7382 54.5108 44.6111 54.5108 44.357 54.3837C44.357 54.3837 44.357 54.3837 44.4841 54.3837C44.7382 54.5108 44.9923 54.5108 45.2464 54.6379C45.5006 54.7649 45.7547 54.7649 45.8818 54.7649C46.263 54.892 46.5171 54.892 46.5171 54.892C46.5171 54.892 46.5171 54.892 46.39 54.892C46.39 54.892 46.263 54.892 46.1359 54.892C46.0088 54.892 46.0088 54.892 45.8818 54.892C45.7547 54.892 45.5006 54.7649 45.2464 54.7649C44.9923 54.6379 44.7382 54.6379 44.4841 54.5108C44.2299 54.3837 44.1029 54.3837 43.8487 54.2567C43.8487 54.2567 43.8487 54.2567 43.7217 54.2567C43.5946 54.2567 43.5946 54.2567 43.4675 54.2567C43.3405 54.2567 43.3405 54.2567 43.2134 54.2567C42.7052 54.1296 42.0698 53.8755 41.4345 53.6214C41.0533 53.4943 40.7992 53.2402 40.418 53.1131L40.545 53.2402C40.6721 53.3672 40.6721 53.3672 40.7992 53.4943C41.0533 53.6214 41.1804 53.7484 41.4345 54.0025C41.6886 54.1296 41.9428 54.2567 42.1969 54.3837C42.324 54.3837 42.451 54.5108 42.451 54.5108C42.5781 54.5108 42.7052 54.6379 42.7052 54.6379C43.0863 54.7649 43.2134 54.892 43.2134 54.892C43.2134 54.892 43.2134 54.892 43.0863 54.892C43.0863 54.892 42.9593 54.892 42.9593 54.7649C42.8322 54.7649 42.8322 54.7649 42.7052 54.6379C42.5781 54.6379 42.5781 54.5108 42.451 54.5108C42.324 54.5108 42.1969 54.3837 42.0698 54.3837C41.8157 54.2567 41.5616 54.1296 41.3074 54.0025C41.0533 53.8755 40.7992 53.6214 40.6721 53.4943C40.545 53.3672 40.418 53.3672 40.418 53.2402C40.2909 53.1131 40.2909 53.1131 40.1639 52.986L40.0368 52.859C39.9097 52.7319 39.7827 52.7319 39.6556 52.6048C39.7827 52.7319 39.7827 52.859 39.9097 52.859C40.0368 52.986 40.1639 53.1131 40.2909 53.2402C40.418 53.3672 40.418 53.3672 40.418 53.3672C40.418 53.3672 40.2909 53.3672 40.2909 53.2402C40.1639 53.2402 40.0368 53.1131 39.9097 52.859C39.7827 52.7319 39.6556 52.6048 39.5285 52.3507C39.4015 52.2236 39.1473 52.0966 39.0203 51.9695L38.8932 51.8424C39.0203 51.9695 39.0203 52.0966 39.1473 52.0966C39.4015 52.3507 39.6556 52.6048 39.7827 52.859C39.9097 52.986 40.0368 53.1131 40.1639 53.2402L40.2909 53.3672L40.418 53.4943C40.545 53.6214 40.545 53.6214 40.6721 53.7484C40.7992 53.8755 40.7992 53.8755 40.7992 53.8755C40.9262 54.0025 40.9262 54.0025 40.9262 54.0025C40.9262 54.0025 40.7992 54.0025 40.7992 53.8755C40.7992 53.8755 40.6721 53.7484 40.545 53.7484C40.418 53.6214 40.418 53.6214 40.2909 53.4943L40.1639 53.3672L40.0368 53.2402C39.9097 53.1131 39.7827 52.986 39.6556 52.859C39.4015 52.6048 39.1473 52.3507 38.8932 52.0966C38.7661 51.8424 38.512 51.7154 38.3849 51.4613L38.2579 51.3342C38.1308 51.2071 38.1308 51.2071 38.0038 51.0801C37.8767 50.953 37.8767 50.953 37.7496 50.8259C37.7496 50.8259 37.7496 50.8259 37.6226 50.6989C37.7496 52.6048 38.2579 54.2567 39.1473 55.7815C39.2744 55.9085 39.5285 56.1626 39.7827 56.2897C40.2909 56.6709 40.7992 56.925 40.7992 56.925C40.7992 56.925 40.6721 56.925 40.418 56.798C40.2909 56.798 40.1639 56.6709 40.0368 56.5438C39.9097 56.4168 39.7827 56.4168 39.6556 56.2897C39.5285 56.1626 39.4015 56.0356 39.2744 55.9085C39.5285 56.2897 39.7827 56.6709 40.0368 57.0521C40.0368 57.0521 40.1639 57.0521 40.1639 57.1792C40.545 57.5604 41.0533 57.6874 40.9262 57.8145C40.9262 57.8145 40.545 57.6874 40.1639 57.4333C40.7992 58.1957 41.4345 58.831 42.1969 59.4663C42.7052 59.7205 43.3405 60.1017 44.1029 60.3558C44.4841 60.4829 44.8653 60.737 45.2464 60.864C45.3735 60.864 45.6276 60.9911 45.7547 60.9911C45.8818 60.9911 45.8818 60.9911 46.0088 61.1182C46.1359 61.1182 46.1359 61.1182 46.263 61.1182C46.39 61.1182 46.5171 61.1182 46.6442 61.2452C46.5171 61.2452 46.39 61.2452 46.263 61.1182H46.0088C45.8818 61.1182 45.8818 61.1182 45.7547 61.1182C45.6276 61.1182 45.3735 60.9911 45.2464 60.9911C44.8653 60.864 44.4841 60.737 43.9758 60.4829C43.4675 60.2287 42.9593 59.9746 42.451 59.7205C43.5946 60.4829 44.7382 61.1182 46.1359 61.4994C46.263 61.4994 46.7712 61.6264 47.4065 61.7535C48.1689 61.8806 48.8043 61.8806 48.8043 61.8806C48.8043 61.8806 48.6772 61.8806 48.4231 61.8806H48.296C48.6772 61.8806 49.0584 62.0076 49.5666 62.0076C52.3621 62.0076 54.9034 61.2452 56.9364 59.7205C56.6823 59.8475 56.5552 59.8475 56.3011 59.9746C55.6658 60.2287 55.0304 60.3558 54.6492 60.4829C54.3951 60.4829 54.268 60.6099 54.141 60.6099C54.0139 60.6099 54.0139 60.6099 53.8869 60.6099C53.8869 60.6099 54.141 60.4829 54.5222 60.4829C54.9034 60.3558 55.5387 60.2287 56.174 59.9746C56.4281 59.8475 56.8093 59.7205 57.0635 59.5934C57.0635 59.5934 57.0635 59.5934 57.1905 59.5934C57.9529 58.9581 58.5882 58.3228 59.2236 57.6874C58.9694 57.9416 58.7153 58.1957 58.5882 58.4498C58.7153 58.3228 58.9694 58.0686 59.2236 57.6874C59.4777 57.4333 59.7318 57.1792 59.8589 56.925C60.2401 56.4168 60.4942 55.9085 60.8754 55.2732C60.7484 55.4003 60.6213 55.5273 60.4942 55.6544C60.3672 55.7815 60.2401 55.9085 59.986 56.0356C59.8589 56.1626 59.7318 56.2897 59.6048 56.2897C59.7318 56.1626 59.8589 56.1626 59.986 56.0356C60.113 55.9085 60.2401 55.7815 60.3672 55.6544C60.4942 55.5273 60.6213 55.4003 60.7484 55.2732C60.7484 55.1461 60.8754 55.1461 60.8754 55.0191C61.2566 54.1296 61.5107 53.2402 61.7649 52.2236C61.6378 52.3507 61.6378 52.4778 61.5107 52.6048C61.3837 52.859 61.2566 52.986 61.0025 53.2402C60.6213 53.6214 60.2401 54.0025 59.986 54.2567C59.7318 54.5108 59.4777 54.6379 59.4777 54.6379C59.4777 54.6379 59.6048 54.5108 59.8589 54.2567C60.113 54.0025 60.4942 53.6214 60.8754 53.2402C61.0025 52.986 61.2566 52.859 61.3837 52.6048C61.5107 52.3507 61.6378 52.2236 61.7649 52.0966C61.7649 51.7154 61.8919 51.3342 61.8919 50.953C61.8919 51.0801 61.8919 51.2071 61.7649 51.3342C61.7649 51.4613 61.6378 51.5883 61.5107 51.8424C61.3837 51.9695 61.2566 52.2236 61.1295 52.3507C60.8754 52.7319 60.4942 52.986 60.3672 53.2402C60.113 53.4943 59.986 53.4943 59.986 53.4943C59.986 53.4943 60.113 53.3672 60.3672 53.1131C60.6213 52.859 60.8754 52.6048 61.1295 52.2236C61.3837 51.8424 61.6378 51.4613 61.7649 51.2071C61.8919 50.953 61.8919 50.6989 61.8919 50.6989C61.8919 50.5718 61.8919 50.3177 61.8919 50.1906C61.7649 50.3177 61.7649 50.5718 61.6378 50.6989C61.3837 51.2071 61.0025 51.4613 61.0025 51.4613C61.0025 51.4613 61.2566 51.0801 61.5107 50.6989C61.6378 50.4447 61.7649 50.1906 61.8919 50.0635C61.8919 49.9365 61.8919 49.8094 61.8919 49.6823C61.8919 49.8094 61.7649 49.8094 61.7649 49.9365C61.6378 50.0635 61.5107 50.3177 61.5107 50.4447C61.3837 50.5718 61.2566 50.8259 61.1295 50.953C61.0025 51.0801 60.8754 51.2071 60.7484 51.3342C60.4942 51.5883 60.3672 51.7154 60.3672 51.7154C60.3672 51.7154 60.4942 51.5883 60.6213 51.3342C60.7484 51.2071 60.8754 51.0801 60.8754 50.953C61.0025 50.8259 61.1295 50.5718 61.2566 50.4447C61.3837 50.3177 61.5107 50.0635 61.6378 49.9365C61.7649 49.8094 61.7649 49.6823 61.7649 49.5553C61.7649 49.4282 61.7649 49.3011 61.7649 49.047C61.7649 49.1741 61.7649 49.1741 61.6378 49.3011C61.6378 49.4282 61.5107 49.6823 61.3837 49.8094C61.2566 49.9365 61.1295 50.1906 61.1295 50.3177C61.1295 50.4447 61.0025 50.4447 61.0025 50.5718L60.8754 50.6989C60.7484 50.8259 60.6213 50.953 60.6213 50.953C60.6213 50.953 60.7484 50.8259 60.8754 50.5718L61.0025 50.4447C61.0025 50.4447 61.1295 50.3177 61.1295 50.1906C61.2566 50.0635 61.3837 49.9365 61.3837 49.6823C61.5107 49.5553 61.5107 49.3012 61.6378 49.1741C61.6378 49.047 61.6378 49.047 61.7649 48.92C61.7649 48.7929 61.7649 48.7929 61.8919 48.6658C61.8919 48.2846 61.7649 48.0305 61.7649 47.6493C61.7649 47.7764 61.7649 47.7764 61.7649 47.9034V48.0305C62.1461 48.6658 62.1461 48.6658 62.1461 48.7929ZM45.7547 60.737C45.6276 60.737 45.5006 60.737 45.5006 60.737C45.3735 60.737 45.2464 60.737 45.1194 60.6099H44.9923C44.8653 60.6099 44.8653 60.6099 44.7382 60.4829C44.6111 60.4829 44.4841 60.3558 44.357 60.3558C44.1029 60.2287 43.7217 60.1017 43.3405 59.8475C42.9593 59.7205 42.7051 59.4663 42.451 59.3393C42.324 59.2122 42.1969 59.2122 42.0698 59.0851L41.9428 58.9581L41.8157 58.831C41.6886 58.7039 41.6886 58.7039 41.5616 58.5769C41.5616 58.5769 41.4345 58.5769 41.4345 58.4498H41.3074C41.1804 58.3228 41.1804 58.3228 41.1804 58.3228C41.1804 58.3228 41.3074 58.3228 41.3074 58.4498L41.4345 58.5769L41.5616 58.7039C41.6886 58.7039 41.6886 58.831 41.8157 58.9581L41.9428 59.0851L42.0698 59.2122C42.1969 59.3393 42.324 59.3393 42.451 59.4663C42.7051 59.5934 43.0863 59.8475 43.3405 59.9746C43.7217 60.1017 43.9758 60.3558 44.357 60.4829C44.4841 60.4829 44.6111 60.6099 44.7382 60.6099C44.8653 60.6099 44.8653 60.6099 44.9923 60.737L45.1194 60.864C45.2464 60.864 45.3735 60.9911 45.3735 60.9911L45.7547 60.737C45.8818 60.737 46.0088 60.737 46.0088 60.737C46.0088 60.864 45.8818 60.864 45.7547 60.737ZM45.1194 55.2732C44.8653 55.1461 44.7382 55.1461 44.7382 55.1461C44.7382 55.1461 45.2464 55.2732 45.8818 55.5273C46.5171 55.7815 47.1524 55.9085 47.0254 55.9085C47.0254 55.9085 46.8983 55.9085 46.6442 55.9085C46.39 55.9085 46.1359 55.7815 45.7547 55.6544C45.6276 55.5273 45.3735 55.4003 45.1194 55.2732ZM46.6442 56.925C46.263 56.798 46.0088 56.6709 46.0088 56.6709C46.0088 56.5438 46.263 56.6709 46.6442 56.925C47.0254 56.925 47.2795 57.0521 47.2795 57.0521C47.2795 57.0521 46.8983 56.925 46.6442 56.925ZM52.235 55.5273C52.6162 55.5273 52.9974 55.5273 52.9974 55.5273C52.9974 55.5273 52.6162 55.6544 52.235 55.5273C51.8538 55.6544 51.4726 55.6544 51.4726 55.6544C51.4726 55.6544 51.7267 55.5273 52.235 55.5273ZM50.7102 58.9581C50.7102 58.9581 50.4561 58.9581 50.202 58.9581C49.9478 58.9581 49.6937 58.9581 49.6937 58.9581C49.6937 58.9581 49.9478 58.831 50.202 58.831C50.4561 58.831 50.7102 58.831 50.7102 58.9581ZM47.9148 55.4003C47.9148 55.4003 48.4231 55.4003 49.1855 55.5273C49.8208 55.5273 50.4561 55.6544 50.4561 55.6544C50.4561 55.6544 50.329 55.6544 50.0749 55.6544H49.1855C48.8043 55.6544 48.5501 55.5273 48.296 55.5273C48.0419 55.4003 47.9148 55.4003 47.9148 55.4003ZM49.4396 60.2287C48.9313 60.2287 48.5501 60.1017 48.5501 60.1017C48.5501 60.1017 48.9313 60.1017 49.4396 60.2287ZM49.8208 62.1347C49.3125 62.1347 48.8043 62.1347 48.8043 62.0076C48.8043 62.0076 49.3125 62.0076 49.8208 62.1347C50.329 62.0076 50.8373 62.0076 50.8373 62.0076C50.8373 62.0076 50.4561 62.1347 49.8208 62.1347ZM54.7763 61.3723C55.0304 61.3723 55.1575 61.2452 55.2846 61.2452C55.4116 61.2452 55.5387 61.2452 55.5387 61.2452C55.5387 61.2452 55.4116 61.2452 55.2846 61.3723C55.2846 61.2452 55.0304 61.3723 54.7763 61.3723C54.268 61.6264 53.6327 61.7535 52.9974 61.8806C52.235 62.0076 51.5997 62.1347 51.0914 62.1347C50.8373 62.1347 50.7102 62.1347 50.4561 62.2618L50.9644 62.1347C51.4726 62.0076 52.1079 61.8806 52.8703 61.7535C53.7598 61.6264 54.3951 61.4994 54.7763 61.3723ZM54.5222 55.0191C54.268 55.1461 53.8869 55.1461 53.6327 55.1461C53.3786 55.1461 53.1245 55.2732 52.8703 55.2732C52.6162 55.2732 52.4891 55.2732 52.3621 55.2732C52.235 55.2732 52.235 55.2732 52.235 55.2732C52.235 55.2732 52.4891 55.2732 52.8703 55.1461C53.1245 55.1461 53.3786 55.0191 53.6327 55.0191C53.8869 55.1461 54.141 55.0191 54.5222 55.0191C54.7763 54.892 55.1575 54.7649 55.4116 54.7649C55.6658 54.6379 55.9199 54.6379 56.174 54.5108C56.5552 54.3837 56.8093 54.3837 56.8093 54.3837C56.8093 54.3837 56.8093 54.3837 56.6823 54.5108C56.5552 54.5108 56.4281 54.6379 56.174 54.6379C55.9199 54.7649 55.7928 54.7649 55.4116 54.892C55.1575 54.892 54.9034 55.0191 54.5222 55.0191ZM59.2236 57.9416C59.0965 58.0686 59.0965 58.0686 59.0965 58.0686L58.9694 58.1957L58.8424 58.3228L58.7153 58.4498C58.5883 58.5769 58.5883 58.5769 58.4612 58.7039C58.2071 58.831 57.9529 58.9581 57.6988 59.2122C57.4447 59.3393 57.1905 59.4663 56.9364 59.5934C56.8093 59.5934 56.6823 59.7205 56.5552 59.7205H56.4282H56.3011C56.174 59.7205 56.174 59.7205 56.047 59.7205C56.174 59.7205 56.174 59.7205 56.3011 59.5934H56.4282H56.5552C56.6823 59.5934 56.8093 59.4663 56.9364 59.4663C57.1905 59.3393 57.4447 59.2122 57.6988 59.0851C57.9529 58.9581 58.2071 58.831 58.4612 58.5769C58.5883 58.4498 58.7153 58.4498 58.7153 58.3228L58.8424 58.1957L58.9694 58.0686C59.0965 58.0686 59.0965 57.9416 59.2236 57.9416C59.0965 58.0686 59.0965 57.9416 59.2236 57.9416C59.0965 57.9416 59.0965 57.9416 59.2236 57.9416Z" fill="#009961"/>
<path d="M43.3406 41.169C43.5947 41.0419 43.7218 40.9149 43.9759 40.7878L44.103 40.6607C44.23 40.5337 44.3571 40.5337 44.4841 40.4066C44.7383 40.2796 45.1195 40.0254 45.5007 39.8984C45.8819 39.7713 46.2631 39.6442 46.5172 39.5172C46.5172 39.5172 46.5172 39.5172 46.6443 39.5172H46.5172C46.3901 39.5172 46.2631 39.5172 46.136 39.6442H46.0089H45.8819C45.3736 39.7713 44.9924 39.8984 44.6112 40.1525C44.4841 40.1525 44.3571 40.2796 44.3571 40.2796C44.23 40.2796 44.103 40.4066 44.103 40.4066C43.9759 40.4066 43.9759 40.5337 43.8488 40.5337L43.7218 40.6607H43.5947H43.4676C43.3406 40.6607 43.3406 40.7878 43.2135 40.7878C43.3406 41.0419 43.3406 41.0419 43.3406 41.169Z" fill="#009961"/>
<path d="M53.6328 38.6277L53.8869 38.7548C54.014 38.7548 54.014 38.7548 54.141 38.8818C54.2681 38.8818 54.2681 39.0089 54.3952 39.0089C54.7764 39.136 55.1576 39.263 55.4117 39.5171C55.7929 39.6442 56.1741 39.8983 56.4282 40.0254C56.5553 40.0254 56.5553 40.1525 56.6823 40.1525C55.4117 39.3901 54.014 38.7548 52.4892 38.3736C52.7433 38.3736 52.9975 38.5006 53.2516 38.6277H53.6328Z" fill="#009961"/>
<path d="M47.1525 38.5006C47.2795 38.5006 47.4066 38.5006 47.5337 38.5006H47.6607H47.7878H47.9149C48.0419 38.5006 48.169 38.5007 48.2961 38.3736C48.4231 38.3736 48.5502 38.3736 48.6773 38.2465H48.8043C48.0419 38.3736 47.2795 38.5007 46.5172 38.7548C46.6442 38.7548 46.6442 38.7548 46.7713 38.7548C46.8983 38.6277 47.0254 38.5006 47.1525 38.5006Z" fill="#009961"/>
<path d="M42.324 44.5997C42.7052 44.3456 42.9593 44.2186 43.3405 44.0915C43.4676 44.0915 43.5947 43.9644 43.5947 43.9644V43.8374C43.0864 44.0915 42.5782 44.2186 42.197 44.3456C42.197 44.3456 42.324 44.4727 42.324 44.5997Z" fill="#009961"/>
<path d="M43.0864 46.6328C43.2135 46.7598 43.2135 46.7598 43.3405 46.8869C43.3405 46.8869 43.3405 46.8869 43.4676 47.014L43.5947 47.141C43.7217 47.014 43.8488 47.014 43.9759 46.8869C43.8488 46.7598 43.7217 46.6328 43.5947 46.5057L43.4676 46.3786C43.3405 46.5057 43.3405 46.5057 43.2135 46.5057V46.3786V46.2516C43.0864 46.2516 43.0864 46.2516 42.9594 46.3786V46.5057C43.0864 46.3786 43.0864 46.5057 43.0864 46.6328Z" fill="#009961"/>
<path d="M40.291 50.3177C40.1639 50.3177 40.1639 50.1906 40.0369 50.1906L40.1639 50.3177H40.291C40.4181 50.4447 40.5451 50.5718 40.6722 50.6989L40.7993 50.8259C40.6722 50.6989 40.5451 50.4447 40.291 50.3177Z" fill="#009961"/>
<path d="M40.6722 50.4447C40.5451 50.4447 40.5451 50.3177 40.418 50.3177C40.5451 50.4447 40.6722 50.5718 40.7992 50.8259C40.9263 50.953 41.0534 51.0801 41.3075 51.3342C41.3075 51.3342 41.3075 51.3342 41.4345 51.3342C41.5616 51.4613 41.8157 51.4613 41.9428 51.5883C42.4511 51.8425 43.0864 52.2236 43.7217 52.3507C43.7217 52.3507 43.7217 52.3507 43.5946 52.3507L43.4676 52.2236H43.3405C43.3405 52.2236 43.3405 52.2236 43.4676 52.2236H43.5946C43.5946 52.2236 43.7217 52.2236 43.7217 52.3507C43.7217 52.3507 43.7217 52.3507 43.8488 52.3507C43.9758 52.3507 43.9758 52.4778 44.1029 52.4778C44.7382 52.7319 45.5006 52.859 46.263 52.986C46.263 52.986 46.263 52.986 46.3901 52.986C46.3901 52.986 46.3901 52.986 46.263 52.986C46.1359 52.986 46.0089 52.986 46.0089 52.986L45.7548 52.859C45.6277 52.859 45.5006 52.859 45.5006 52.7319H45.3736H45.2465C45.1194 52.7319 44.9924 52.7319 44.9924 52.6048C44.7382 52.4778 44.6112 52.4778 44.357 52.3507C43.9758 52.2236 43.5947 52.0966 43.2135 51.8425C42.8323 51.7154 42.4511 51.4613 42.0699 51.2071C41.6887 50.953 41.3075 50.6989 40.9263 50.4447C40.7992 50.5718 40.7992 50.5718 40.6722 50.4447Z" fill="#009961"/>
<path d="M42.7052 45.3621C42.8323 45.3621 42.9593 45.3621 43.2135 45.3621L43.0864 45.2351C42.9593 45.3621 42.8323 45.3621 42.7052 45.3621Z" fill="#009961"/>
<path d="M44.23 44.5998C44.1029 44.7268 43.8488 44.7268 43.7217 44.8539C43.5947 44.8539 43.5947 44.981 43.4676 44.981C43.5947 44.981 43.5947 45.108 43.7217 45.108C43.9758 44.981 44.1029 44.8539 44.357 44.8539C44.357 44.7268 44.357 44.7268 44.23 44.5998Z" fill="#009961"/>
</svg>
