<svg width="101" height="100" viewBox="0 0 101 100" fill="none" xmlns="http://www.w3.org/2000/svg">
<path d="M50.6285 9.00735C27.5275 9.00735 8.85309 27.6654 8.85309 50.6432C8.85309 73.621 27.5737 92.279 50.6285 92.279C73.6834 92.279 92.404 73.621 92.404 50.6432C92.404 27.6654 73.7295 9.00735 50.6285 9.00735ZM53.4412 77.9868C36.0578 79.6872 21.5333 65.2571 23.2393 47.8858C24.5304 35.0642 34.9512 24.6782 47.8158 23.3915C65.1992 21.6911 79.7238 36.1212 78.0177 53.4924C76.7267 66.3141 66.3059 76.7001 53.4412 77.9868Z" fill="url(#paint0_linear_1_50)"/>
<path d="M8.34581 99.9535C12.9551 99.9535 16.6917 96.2294 16.6917 91.6355C16.6917 87.0416 12.9551 83.3176 8.34581 83.3176C3.73651 83.3176 -6.10352e-05 87.0416 -6.10352e-05 91.6355C-6.10352e-05 96.2294 3.73651 99.9535 8.34581 99.9535Z" fill="url(#paint1_linear_1_50)"/>
<path d="M91.9428 16.6359C96.5521 16.6359 100.289 12.9118 100.289 8.31795C100.289 3.72405 96.5521 -3.05176e-05 91.9428 -3.05176e-05C87.3336 -3.05176e-05 83.597 3.72405 83.597 8.31795C83.597 12.9118 87.3336 16.6359 91.9428 16.6359Z" fill="url(#paint2_linear_1_50)"/>
<defs>
<linearGradient id="paint0_linear_1_50" x1="8.84525" y1="50.6832" x2="92.434" y2="50.6832" gradientUnits="userSpaceOnUse">
<stop stop-color="#19B7CB"/>
<stop offset="1" stop-color="#55C0D3"/>
</linearGradient>
<linearGradient id="paint1_linear_1_50" x1="-6.10352e-05" y1="91.6382" x2="16.666" y2="91.6382" gradientUnits="userSpaceOnUse">
<stop stop-color="#19B7CB"/>
<stop offset="1" stop-color="#55C0D3"/>
</linearGradient>
<linearGradient id="paint2_linear_1_50" x1="83.6125" y1="8.30517" x2="100.279" y2="8.30517" gradientUnits="userSpaceOnUse">
<stop stop-color="#19B7CB"/>
<stop offset="1" stop-color="#55C0D3"/>
</linearGradient>
</defs>
</svg>
