<svg width="100" height="100" viewBox="0 0 100 100" fill="none" xmlns="http://www.w3.org/2000/svg">
<g clip-path="url(#clip0_112_131)">
<path d="M12.1213 17.2879C12.7462 16.5129 13.3962 15.7629 14.0462 15.013C14.0712 14.988 14.1462 14.963 14.1712 14.938C14.2212 14.863 14.3212 14.813 14.3962 14.738L14.4462 14.663C14.8962 14.238 15.3962 13.788 15.9462 13.363C17.9462 11.863 19.9961 10.713 22.1711 9.93802C29.171 7.48805 36.9459 8.98803 43.0459 14.763C51.5707 22.7379 50.7958 35.6127 43.9958 44.1626C35.396 56.9124 20.6461 74.6872 41.0709 90.612C44.7458 93.4869 47.4708 95.8369 59.0456 99.1869C51.4707 100.587 44.4458 100.137 36.6459 98.1619C31.121 95.0369 22.4211 88.362 19.4712 79.3371C14.9962 65.6623 27.3461 45.1876 33.296 37.3127C41.4709 26.4128 28.246 14.613 18.4712 27.7878C13.4212 34.6627 4.49635 54.0875 7.59631 68.5123C9.39629 76.6872 11.8213 82.6371 21.3961 90.837C19.6212 89.787 17.8962 88.612 16.2212 87.262C-6.00351 66.5373 -3.42855 34.4877 12.1213 17.2879Z" fill="url(#paint0_linear_112_131)"/>
<path d="M87.8702 82.7371C87.2452 83.5121 86.5952 84.2621 85.9452 85.0121C85.9202 85.0371 85.8452 85.0621 85.8202 85.0871C85.7702 85.1621 85.6702 85.2121 85.5952 85.2871L85.5452 85.362C85.0952 85.787 84.5952 86.237 84.0453 86.637C82.0453 88.137 79.9953 89.287 77.8203 90.062C70.8204 92.512 63.0455 91.012 56.9456 85.2371C48.4207 77.2622 49.1957 64.3873 55.9956 55.8374C64.5955 43.0876 79.3453 25.3128 58.9206 9.38802C55.2456 6.51306 52.5207 4.16309 40.9458 0.813131C48.5207 -0.586851 55.5456 -0.136857 63.3455 1.83812C68.8704 4.96308 77.5703 11.638 80.5203 20.6629C84.9952 34.3377 72.6454 54.8124 66.6955 62.6873C58.5206 73.5872 71.7454 85.387 81.5203 72.2122C86.6202 65.3373 95.5451 45.9126 92.4451 31.4877C90.6452 23.3128 88.2202 17.3629 78.6453 9.16302C80.4203 10.213 82.1453 11.388 83.8202 12.738C105.995 33.4877 103.42 65.5373 87.8702 82.7371Z" fill="url(#paint1_linear_112_131)"/>
</g>
<defs>
<linearGradient id="paint0_linear_112_131" x1="-0.003591" y1="54.4217" x2="99.9951" y2="54.4217" gradientUnits="userSpaceOnUse">
<stop stop-color="#0082FA"/>
<stop offset="1" stop-color="#00F2FE"/>
</linearGradient>
<linearGradient id="paint1_linear_112_131" x1="-0.00366795" y1="45.6034" x2="99.995" y2="45.6034" gradientUnits="userSpaceOnUse">
<stop stop-color="#0082FA"/>
<stop offset="1" stop-color="#00F2FE"/>
</linearGradient>
<clipPath id="clip0_112_131">
<rect width="100" height="100" fill="white"/>
</clipPath>
</defs>
</svg>
