<svg width="100" height="100" viewBox="0 0 100 100" fill="none" xmlns="http://www.w3.org/2000/svg">
<g clip-path="url(#clip0_113_260)">
<path d="M51.0896 23.0868C54.2573 36.3699 44.4211 54.0732 23.1676 51.2271L22.8571 51.1818C22.9724 56.5707 24.673 61.8072 27.7478 66.2411C30.8226 70.675 35.1362 74.1111 40.153 76.1227C45.1697 78.1343 50.6687 78.6328 55.9672 77.5564C61.2658 76.48 66.1304 73.8761 69.9573 70.0678C73.7841 66.2596 76.4046 61.4149 77.4934 56.1352C78.5821 50.8554 78.0912 45.3732 76.0816 40.3691C74.0719 35.365 70.6321 31.0595 66.1891 27.9871C61.7461 24.9147 56.4957 23.2107 51.0896 23.0868Z" fill="#333333"/>
<path d="M27.9258 47.1145C38.6149 47.1145 47.2801 38.477 47.2801 27.8221C47.2801 17.1672 38.6149 8.52969 27.9258 8.52969C17.2367 8.52969 8.57141 17.1672 8.57141 27.8221C8.57141 38.477 17.2367 47.1145 27.9258 47.1145Z" fill="#299E94"/>
<path d="M80.2859 21.8147C76.4433 21.8109 72.6896 22.9663 69.5181 25.1289C72.8069 27.5994 87.1362 39.8369 80.4184 61.028C91.0461 60.9544 99.6402 52.2066 99.6402 41.4223C99.6327 30.5927 90.9666 21.8147 80.2859 21.8147ZM57.2015 91.7162C59.3823 88.5629 60.5558 84.8261 60.568 80.9961C56.66 82.2946 38.4152 87.1206 24.724 69.5871C18.756 78.3538 21.1114 90.3706 30.0255 96.4874C38.9718 102.623 51.1388 100.487 57.2015 91.7162Z" fill="#299E94"/>
<path d="M91.7978 62.3511C89.7273 69.2456 85.9696 75.5188 80.8629 80.6062C75.7562 85.6936 69.4607 89.4356 62.5428 91.4954C60.7814 94.7474 58.2867 97.5475 55.2551 99.6752C78.828 97.2914 97.5727 78.6294 100 55.1433C97.8616 58.1456 95.054 60.6128 91.7978 62.3511ZM40.1458 7.78418C46.979 6.18322 54.0993 6.25296 60.8997 7.98746C67.7001 9.72197 73.9789 13.0698 79.201 17.7456C79.663 17.7192 80.1269 17.7022 80.5945 17.7022C83.8149 17.7015 87.0018 18.3539 89.9612 19.6197C83.067 10.6394 73.3232 4.25295 62.3196 1.50228C51.316 -1.2484 39.7019 -0.200932 29.3723 4.47379C33.1785 4.69614 36.8745 5.83182 40.1458 7.78418ZM17.4552 80.3223C17.4552 79.7448 17.4836 79.1729 17.5253 78.6067C13.0038 73.4908 9.75601 67.3844 8.04535 60.783C6.33469 54.1817 6.20938 47.2713 7.6796 40.6126C5.67058 37.3808 4.47533 33.7126 4.19574 29.9208C-0.257581 40.0826 -1.19671 51.4314 1.52599 62.1832C4.2487 72.9349 10.4788 82.4799 19.2369 89.3174C18.0565 86.4647 17.4511 83.4082 17.4552 80.3223Z" fill="#333333"/>
</g>
<defs>
<clipPath id="clip0_113_260">
<rect width="100" height="100" fill="white"/>
</clipPath>
</defs>
</svg>
