<svg width="45" height="36" viewBox="0 0 45 36" fill="none" xmlns="http://www.w3.org/2000/svg">
<path d="M13.1537 35C10.0691 35 6.98448 35 3.89985 35C1.32198 35 0.0220331 33.732 0 31.1961C0 27.2392 0.0220331 23.2605 0 19.3036C0 18.0793 0.440661 17.1612 1.34402 16.3304C4.47271 13.5322 7.57937 10.6902 10.686 7.87009C12.4266 6.29607 14.013 6.27421 15.7316 7.84823C18.8383 10.6683 21.9449 13.5103 25.0736 16.3304C25.977 17.1393 26.3956 18.1012 26.3956 19.3254C26.3736 23.3698 26.3956 27.4141 26.3736 31.4366C26.3736 33.6883 25.0295 35 22.7381 35.0219C19.5433 35.0219 16.3485 35 13.1537 35ZM13.1317 25.1624C16.4367 25.1624 16.5468 25.075 16.5468 21.8395C16.5468 18.757 16.4146 18.604 13.2639 18.604C9.95894 18.604 9.87081 18.6915 9.87081 21.9269C9.84877 25.0312 9.98097 25.1624 13.1317 25.1624Z" fill="#4A3D60"/>
<path d="M35.3851 13.1387C37.3901 15.6527 39.1968 17.9044 41.0035 20.1561C41.6425 20.9431 42.0611 21.7739 41.5984 22.7576C41.1137 23.8288 40.1663 24.1349 39.0426 24.0693C38.646 24.0475 38.2714 24.0693 37.6104 24.0693C39.0205 25.8401 40.2764 27.3922 41.5103 28.9663C42.1713 29.797 42.8543 30.6059 43.4932 31.4584C44 32.1362 44.1983 32.9013 43.8017 33.7102C43.3831 34.5846 42.634 35 41.6645 35C37.1477 35 32.6309 35 28.1142 35C28.004 35 27.9159 34.9563 27.6955 34.9125C28.9294 32.8576 28.687 30.6277 28.7091 28.4197C28.7091 25.534 28.687 22.6702 28.7091 19.7845C28.7311 17.5328 27.8718 15.7183 26.1532 14.2317C24.1262 12.4828 22.1873 10.6683 20.1823 8.89755C19.6535 8.43846 19.5874 8.11054 20.1382 7.58587C22.4296 5.33415 24.6991 3.03871 26.9905 0.786997C27.982 -0.174902 29.1497 -0.262347 30.1412 0.67769C33.1377 3.58525 36.0901 6.53653 39.0426 9.46595C39.6815 10.0999 39.7697 10.9088 39.4612 11.7177C39.1307 12.614 38.3816 13.0731 37.4121 13.1387C36.8393 13.1605 36.2664 13.1387 35.3851 13.1387Z" fill="#7D7490"/>
</svg>
