<?xml version="1.0" encoding="utf-8"?>
<!-- Generator: Adobe Illustrator 26.1.0, SVG Export Plug-In . SVG Version: 6.00 Build 0)  -->
<svg version="1.1" id="Layer_1" xmlns="http://www.w3.org/2000/svg" xmlns:xlink="http://www.w3.org/1999/xlink" x="0px" y="0px"
	 viewBox="0 0 942.78 319.91" style="enable-background:new 0 0 942.78 319.91;" xml:space="preserve">
<g>
	<g id="XMLID_00000148638780732486853000000005375235061109196678_">
		<g>
			<polygon points="716.13,41.53 763.38,41.53 855.43,196.34 886.1,41.53 942.53,41.53 893.15,288.39 846.25,288.39 754.21,133.92 
				723.18,288.39 666.75,288.39 			"/>
			<path d="M645.39,0.26c17.62,0.26,31.31,14.61,31.11,32.57c-0.2,17.71-14.42,31.44-32.38,31.26
				c-17.79-0.16-31.56-14.25-31.46-32.17C612.78,13.76,627.05-0.02,645.39,0.26z"/>
			<path d="M619.07,82.33c16.4,21.56,26.13,48.46,26.13,77.62c0,70.92-57.49,128.4-128.39,128.4c-29.16,0-56.07-9.72-77.62-26.13
				l34.71-34.72c12.4,7.9,27.12,12.46,42.91,12.46c44.18,0,80.02-35.81,80.02-80.02c0-15.78-4.58-30.5-12.46-42.9L619.07,82.33z"/>
			<path d="M516.81,79.93c-44.19,0-80.02,35.84-80.02,80.02c0,15.17,4.22,29.36,11.55,41.45l-34.83,34.83
				c-15.78-21.31-25.11-47.71-25.11-76.28c0-70.9,57.49-128.38,128.4-128.38c28.55,0,54.94,9.31,76.26,25.11L558.24,91.5
				C546.17,84.17,531.98,79.93,516.81,79.93z"/>
			<path d="M389.33,255.82c17.81,0.11,31.67,14.14,31.62,32.02c-0.06,17.88-14,31.8-31.85,31.82c-18.13,0.01-32.16-14.2-32.01-32.42
				C357.26,269.5,371.41,255.71,389.33,255.82z"/>
			<path d="M142.89,104.76c12.82-22.45,30.86-40.14,54.14-53.07c23.27-12.92,49.95-19.39,80.04-19.39c22.1,0,41.62,3.76,58.54,11.28
				s29.73,18.34,38.44,32.44l-41.26,33.86c-13.17-19.27-33.03-28.92-59.6-28.92c-18.11,0-34.08,4.24-47.96,12.7
				c-13.86,8.47-24.62,19.98-32.27,34.56c-7.64,14.59-11.45,30.8-11.45,48.67c0,19.04,6.04,34.15,18.16,45.31
				c12.11,11.17,29.1,16.75,50.96,16.75c26.1,0,47.96-9.51,65.59-28.56l33.86,34.56c-24.46,28.45-59.25,42.68-104.39,42.68
				c-24.68,0-46.26-4.46-64.71-13.4c-18.45-8.93-32.62-21.51-42.49-37.73c-9.87-16.23-14.81-34.92-14.81-56.07
				C123.68,152.43,130.08,127.22,142.89,104.76z"/>
			<polygon points="49.63,41.53 107.1,41.53 57.74,288.39 0.25,288.39 			"/>
		</g>
	</g>
</g>
</svg>
