<svg width="108" height="36" viewBox="0 0 108 36" fill="none" xmlns="http://www.w3.org/2000/svg">
<path fill-rule="evenodd" clip-rule="evenodd" d="M107.235 20.2229C107.235 20.6951 106.843 21.0859 106.369 21.0859H104.653C104.18 21.0859 103.787 20.6951 103.787 20.2229V12.5213C103.787 9.68812 101.484 7.39228 98.6413 7.39228C95.7986 7.39228 93.495 9.68812 93.495 12.5213V20.2229C93.495 20.6951 93.103 21.0859 92.6292 21.0859H90.9138C90.44 21.0859 90.0479 20.6951 90.0479 20.2229V12.5213C90.0479 7.79935 93.8871 3.97295 98.6249 3.97295C103.363 3.97295 107.202 7.79935 107.202 12.5213V20.2229H107.235Z" fill="#5A6B80"/>
<path fill-rule="evenodd" clip-rule="evenodd" d="M61.9154 7.39228C59.0727 7.39228 56.7692 9.68812 56.7692 12.5213C56.7692 15.3544 59.0727 17.6503 61.9154 17.6503H66.2121C66.6858 17.6503 67.0779 18.0411 67.0779 18.5133V20.2229C67.0779 20.6951 66.6858 21.0859 66.2121 21.0859H61.9154C57.1776 21.0859 53.3384 17.2595 53.3384 12.5376C53.3384 7.81563 57.1776 3.98923 61.9154 3.98923H66.2121C66.6858 3.98923 67.0779 4.38001 67.0779 4.8522V6.56187C67.0779 7.03406 66.6858 7.42485 66.2121 7.42485H61.9154V7.39228Z" fill="#5A6B80"/>
<path fill-rule="evenodd" clip-rule="evenodd" d="M49.9075 4.83592C49.9075 4.36373 49.5154 3.97295 49.0417 3.97295H47.3263C46.8525 3.97295 46.4604 4.36373 46.4604 4.83592V20.2229C46.4604 20.6951 46.8525 21.0859 47.3263 21.0859H49.0417C49.5154 21.0859 49.9075 20.6951 49.9075 20.2229V4.83592Z" fill="#5A6B80"/>
<path d="M78.0565 3.89153C73.2533 3.89153 69.3488 7.78306 69.3488 12.5701C69.3488 17.3572 73.2533 21.2487 78.0565 21.2487C82.8596 21.2487 86.7642 17.3572 86.7642 12.5701C86.7642 7.78306 82.8596 3.89153 78.0565 3.89153ZM78.6119 17.9922C75.1484 18.3342 72.2568 15.4521 72.5999 12.0002C72.8612 9.44388 74.9197 7.376 77.4847 7.13176C80.9481 6.78983 83.8398 9.67184 83.4967 13.1237C83.2517 15.6801 81.1769 17.7317 78.6119 17.9922Z" fill="#5A6B80"/>
<path d="M18.7036 3.19138C10.5187 3.19138 3.90213 9.8021 3.90213 17.9434C3.90213 26.0847 10.535 32.6954 18.7036 32.6954C26.8722 32.6954 33.505 26.0847 33.505 17.9434C33.505 9.8021 26.8885 3.19138 18.7036 3.19138ZM19.7002 27.6315C13.541 28.2339 8.39485 23.1212 8.99932 16.9664C9.45676 12.4236 13.149 8.74373 17.707 8.28782C23.8661 7.68537 29.0123 12.7981 28.4079 18.9529C27.9504 23.4957 24.2582 27.1756 19.7002 27.6315Z" fill="url(#paint0_linear_70_44)"/>
<path d="M3.72241 35.4145C5.35553 35.4145 6.67943 34.0951 6.67943 32.4674C6.67943 30.8397 5.35553 29.5203 3.72241 29.5203C2.08929 29.5203 0.765381 30.8397 0.765381 32.4674C0.765381 34.0951 2.08929 35.4145 3.72241 35.4145Z" fill="url(#paint1_linear_70_44)"/>
<path d="M33.3417 5.89428C34.9748 5.89428 36.2987 4.5748 36.2987 2.94714C36.2987 1.31948 34.9748 0 33.3417 0C31.7085 0 30.3846 1.31948 30.3846 2.94714C30.3846 4.5748 31.7085 5.89428 33.3417 5.89428Z" fill="url(#paint2_linear_70_44)"/>
<path d="M47.7184 25.6776V28.2014H51.3616V29.0969H47.7184V32.0278H46.6728V24.782H51.8027V25.6776H47.7184Z" fill="#19B7CB"/>
<path d="M53.8285 31.7347C53.3873 31.4905 53.0443 31.1648 52.7992 30.7415C52.5542 30.3181 52.4235 29.8296 52.4235 29.2923C52.4235 28.755 52.5378 28.2665 52.7992 27.8432C53.0443 27.4198 53.3873 27.0942 53.8285 26.8499C54.2696 26.6057 54.7597 26.4917 55.2988 26.4917C55.8543 26.4917 56.3444 26.6057 56.7691 26.8499C57.1939 27.0942 57.537 27.4198 57.782 27.8432C58.0271 28.2665 58.1578 28.755 58.1578 29.2923C58.1578 29.8296 58.0434 30.3018 57.782 30.7415C57.537 31.1648 57.1939 31.5067 56.7691 31.7347C56.3444 31.9789 55.8543 32.0929 55.2988 32.0929C54.7597 32.0929 54.2696 31.9789 53.8285 31.7347ZM56.2627 30.9857C56.5404 30.8229 56.7691 30.5949 56.9162 30.3018C57.0796 30.0087 57.1612 29.6668 57.1612 29.2923C57.1612 28.9178 57.0796 28.5759 56.9162 28.2828C56.7528 27.9897 56.5404 27.7618 56.2627 27.5989C55.985 27.4361 55.6582 27.3547 55.3151 27.3547C54.9557 27.3547 54.6453 27.4361 54.3676 27.5989C54.0899 27.7618 53.8611 27.9897 53.6978 28.2828C53.5344 28.5759 53.4527 28.9178 53.4527 29.2923C53.4527 29.6668 53.5344 30.0087 53.6978 30.3018C53.8611 30.5949 54.0899 30.8229 54.3676 30.9857C54.6453 31.1485 54.9721 31.2299 55.3151 31.2299C55.6582 31.2299 55.9686 31.1485 56.2627 30.9857Z" fill="#19B7CB"/>
<path d="M64.6763 26.5406V32.0278H63.7287V31.1974C63.5327 31.4742 63.255 31.7021 62.9282 31.8487C62.6015 32.0115 62.2421 32.0766 61.85 32.0766C61.1148 32.0766 60.543 31.8812 60.1182 31.4742C59.6935 31.0671 59.4811 30.4809 59.4811 29.6831V26.5406H60.4776V29.5854C60.4776 30.1227 60.6083 30.5135 60.8697 30.7903C61.1311 31.0671 61.4906 31.1974 61.9643 31.1974C62.4871 31.1974 62.9119 31.0345 63.206 30.7252C63.5164 30.3995 63.6634 29.9599 63.6634 29.3737V26.5406H64.6763Z" fill="#19B7CB"/>
<path d="M71.1786 27.0942C71.587 27.5012 71.7994 28.0874 71.7994 28.869V32.0278H70.8028V28.9829C70.8028 28.4456 70.6721 28.0548 70.4107 27.778C70.1493 27.5012 69.7899 27.371 69.3161 27.371C68.777 27.371 68.3522 27.5338 68.0418 27.8432C67.7314 28.1525 67.568 28.6084 67.568 29.1946V32.0278H66.5715V26.5406H67.519V27.371C67.7151 27.0942 67.9928 26.8662 68.3359 26.7197C68.679 26.5731 69.0711 26.4917 69.5122 26.4917C70.2147 26.4917 70.7701 26.6871 71.1786 27.0942Z" fill="#19B7CB"/>
<path d="M78.8733 24.3424V32.0278H77.9094V31.1648C77.6807 31.4742 77.403 31.7021 77.0763 31.865C76.7332 32.0278 76.3574 32.1092 75.949 32.1092C75.4099 32.1092 74.9361 31.9952 74.5113 31.751C74.0866 31.5067 73.7598 31.1811 73.5147 30.7577C73.2697 30.3344 73.1553 29.8459 73.1553 29.2923C73.1553 28.7387 73.2697 28.2502 73.5147 27.8269C73.7598 27.4035 74.0866 27.0779 74.5113 26.8499C74.9361 26.622 75.4099 26.4917 75.949 26.4917C76.3411 26.4917 76.7005 26.5731 77.0436 26.7197C77.3703 26.8662 77.6481 27.0942 77.8768 27.371V24.3424H78.8733ZM76.9782 30.9857C77.256 30.8229 77.4847 30.5949 77.6481 30.3018C77.8114 30.0088 77.8931 29.6668 77.8931 29.2923C77.8931 28.9178 77.8114 28.5759 77.6481 28.2828C77.4847 27.9897 77.2723 27.7618 76.9782 27.5989C76.7005 27.4361 76.3738 27.3547 76.0307 27.3547C75.6713 27.3547 75.3608 27.4361 75.0831 27.5989C74.8054 27.7618 74.5767 27.9897 74.4133 28.2828C74.2499 28.5759 74.1682 28.9178 74.1682 29.2923C74.1682 29.6668 74.2499 30.0088 74.4133 30.3018C74.5767 30.5949 74.8054 30.8229 75.0831 30.9857C75.3608 31.1485 75.6876 31.2299 76.0307 31.2299C76.3738 31.2299 76.7005 31.1485 76.9782 30.9857Z" fill="#19B7CB"/>
<path d="M84.5096 27.0453C84.918 27.4198 85.1141 27.9734 85.1141 28.7061V32.0115H84.1665V31.2788C84.0032 31.5393 83.7581 31.7347 83.4477 31.865C83.1373 31.9952 82.7779 32.0603 82.3531 32.0603C81.7323 32.0603 81.2422 31.9138 80.8664 31.6207C80.4907 31.3276 80.311 30.9369 80.311 30.4484C80.311 29.9599 80.4907 29.5691 80.8338 29.276C81.1932 28.9829 81.7486 28.8364 82.5165 28.8364H84.1012V28.641C84.1012 28.2177 83.9705 27.8757 83.7254 27.6641C83.4804 27.4361 83.1046 27.3221 82.6309 27.3221C82.3041 27.3221 81.9937 27.371 81.667 27.485C81.3402 27.5989 81.0952 27.7292 80.8828 27.9083L80.4907 27.1919C80.7684 26.9639 81.1115 26.7848 81.5036 26.6708C81.8957 26.5568 82.3204 26.4917 82.7615 26.4917C83.5294 26.4917 84.1012 26.6871 84.5096 27.0453ZM83.5131 31.0671C83.7908 30.9043 83.9868 30.66 84.1175 30.3507V29.5854H82.5818C81.7323 29.5854 81.3075 29.8622 81.3075 30.4321C81.3075 30.7089 81.4219 30.9206 81.6343 31.0834C81.8467 31.2462 82.1407 31.3276 82.5328 31.3276C82.9086 31.3276 83.2517 31.2462 83.5131 31.0671Z" fill="#19B7CB"/>
<path d="M90.0643 31.7021C89.9172 31.8324 89.7375 31.9138 89.5251 31.9789C89.3128 32.0441 89.084 32.0766 88.8553 32.0766C88.2999 32.0766 87.8751 31.9301 87.5647 31.637C87.2543 31.3439 87.1072 30.9206 87.1072 30.367V27.3547H86.176V26.5406H87.1072V25.3356H88.1038V26.5406H89.6885V27.3547H88.1038V30.3181C88.1038 30.6112 88.1855 30.8391 88.3325 31.002C88.4796 31.1648 88.692 31.2462 88.9697 31.2462C89.2801 31.2462 89.5415 31.1648 89.7539 30.9857L90.0643 31.7021Z" fill="#19B7CB"/>
<path d="M91.2895 25.3031C91.1588 25.1728 91.0935 25.0263 91.0935 24.8472C91.0935 24.6681 91.1588 24.5215 91.2895 24.3913C91.4202 24.261 91.5836 24.1959 91.7797 24.1959C91.9757 24.1959 92.1391 24.261 92.2698 24.375C92.4005 24.489 92.4658 24.6518 92.4658 24.8309C92.4658 25.01 92.4005 25.1728 92.2698 25.3031C92.1391 25.4333 91.9757 25.4985 91.7797 25.4985C91.5673 25.4822 91.4202 25.4333 91.2895 25.3031ZM91.2732 26.5406H92.2698V32.0278H91.2732V26.5406Z" fill="#19B7CB"/>
<path d="M95.0471 31.7347C94.606 31.4905 94.2629 31.1648 94.0178 30.7415C93.7728 30.3181 93.6421 29.8296 93.6421 29.2923C93.6421 28.755 93.7564 28.2665 94.0178 27.8432C94.2629 27.4198 94.606 27.0942 95.0471 26.8499C95.4882 26.6057 95.9783 26.4917 96.5174 26.4917C97.0566 26.4917 97.563 26.6057 97.9878 26.8499C98.4125 27.0942 98.7556 27.4198 99.0007 27.8432C99.2457 28.2665 99.3764 28.755 99.3764 29.2923C99.3764 29.8296 99.2621 30.3018 99.0007 30.7415C98.7556 31.1648 98.4125 31.5067 97.9878 31.7347C97.563 31.9789 97.0729 32.0929 96.5174 32.0929C95.962 32.0929 95.4882 31.9789 95.0471 31.7347ZM97.4813 30.9857C97.7591 30.8229 97.9878 30.5949 98.1348 30.3018C98.2982 30.0087 98.3799 29.6668 98.3799 29.2923C98.3799 28.9178 98.2982 28.5759 98.1348 28.2828C97.9714 27.9897 97.7591 27.7618 97.4813 27.5989C97.2036 27.4361 96.8768 27.3547 96.5338 27.3547C96.1907 27.3547 95.8639 27.4361 95.5862 27.5989C95.3085 27.7618 95.0798 27.9897 94.9164 28.2828C94.753 28.5759 94.6713 28.9178 94.6713 29.2923C94.6713 29.6668 94.753 30.0087 94.9164 30.3018C95.0798 30.5949 95.3085 30.8229 95.5862 30.9857C95.8639 31.1485 96.1907 31.2299 96.5338 31.2299C96.8768 31.2299 97.1873 31.1485 97.4813 30.9857Z" fill="#19B7CB"/>
<path d="M105.372 27.0942C105.781 27.5012 105.993 28.0874 105.993 28.869V32.0278H104.996V28.9829C104.996 28.4456 104.866 28.0548 104.604 27.778C104.343 27.5012 103.984 27.371 103.51 27.371C102.971 27.371 102.546 27.5338 102.235 27.8432C101.925 28.1525 101.762 28.6084 101.762 29.1946V32.0278H100.765V26.5406H101.713V27.371C101.909 27.0942 102.186 26.8662 102.529 26.7197C102.873 26.5731 103.265 26.4917 103.706 26.4917C104.392 26.4917 104.947 26.6871 105.372 27.0942Z" fill="#19B7CB"/>
<defs>
<linearGradient id="paint0_linear_70_44" x1="3.89935" y1="17.9576" x2="33.5157" y2="17.9576" gradientUnits="userSpaceOnUse">
<stop stop-color="#19B7CB"/>
<stop offset="1" stop-color="#55C0D3"/>
</linearGradient>
<linearGradient id="paint1_linear_70_44" x1="0.765381" y1="32.4683" x2="6.67035" y2="32.4683" gradientUnits="userSpaceOnUse">
<stop stop-color="#19B7CB"/>
<stop offset="1" stop-color="#55C0D3"/>
</linearGradient>
<linearGradient id="paint2_linear_70_44" x1="30.3901" y1="2.94262" x2="36.2951" y2="2.94262" gradientUnits="userSpaceOnUse">
<stop stop-color="#19B7CB"/>
<stop offset="1" stop-color="#55C0D3"/>
</linearGradient>
</defs>
</svg>
