<svg width="44" height="32" viewBox="0 0 44 32" fill="none" xmlns="http://www.w3.org/2000/svg">
<path d="M13.3785 2.5476C13.7699 2.23808 14.2346 2.38094 14.6748 2.38094C19.5664 2.38094 24.4825 2.38094 29.3986 2.35713C29.423 2.7857 29.4964 3.21427 29.4964 3.64284C29.4964 6.49998 29.4964 9.35713 29.4964 12.1905C29.4964 12.4286 29.5208 12.6667 29.4964 12.9047C29.4475 13.6667 29.8388 14.1905 30.597 14.1905C31.3307 14.1905 31.7221 13.6428 31.7221 12.9047C31.7221 10.8571 31.7465 8.7857 31.7221 6.73808C31.7221 6.11903 31.9177 5.90475 32.5536 5.92856C33.8255 5.97617 35.0728 5.95237 36.3446 5.92856C37.323 5.92856 37.861 5.45237 37.861 4.47617C37.861 4.16665 37.9099 3.85713 37.9099 3.52379C41.8232 5.52379 43.8777 8.69046 43.9511 12.9762C44.0245 17.3333 44 21.6905 43.9511 26.0476C43.9266 28.8571 41.8966 30.9047 39.0595 30.9286C32.5047 30.9762 25.95 30.9524 19.4197 30.9524C19.1751 30.9524 18.9305 30.9762 18.7348 30.7619C18.7593 30.5 18.9794 30.5 19.1506 30.4047C20.985 29.4524 21.8899 27.9524 21.8899 25.9524C21.9144 21.6667 21.9633 17.3809 21.8899 13.0952C21.841 8.09522 18.7838 4.2857 13.8432 2.85713C13.6476 2.80951 13.4519 2.76189 13.3785 2.5476Z" fill="#7D7490"/>
<path d="M13.3785 2.54764C13.4519 2.76193 13.6476 2.80955 13.8432 2.85716C18.7593 4.26193 21.8166 8.09526 21.9144 13.1191C21.9878 17.4048 21.9389 21.6905 21.9144 25.9762C21.8899 27.9524 20.985 29.4762 19.1751 30.4286C19.0039 30.5238 18.7838 30.5476 18.7593 30.7857C14.1123 31.1905 9.46526 30.9524 4.84269 30.9286C2.20122 30.9286 0.146748 28.9524 0.0978319 26.381C-1.9462e-07 21.7857 -0.0733743 17.1667 0.12229 12.5715C0.391328 5.83335 6.48138 1.6905 12.5225 2.52383C12.7916 2.57145 13.085 2.54764 13.3785 2.54764ZM11.055 11.9048C9.51418 11.9048 7.97332 11.9286 6.408 11.9048C5.50306 11.881 4.84269 12.1905 4.86715 13.1429C4.89161 14.0476 5.52752 14.2857 6.38355 14.2857C9.48972 14.2857 12.5714 14.2857 15.6776 14.2857C16.5336 14.2857 17.1451 13.9762 17.1451 13.0953C17.1451 12.2143 16.5581 11.881 15.6776 11.881C14.1367 11.9286 12.5959 11.9048 11.055 11.9048Z" fill="#4A3D60"/>
<path d="M37.91 3.54761C37.8855 3.85714 37.861 4.16666 37.861 4.49999C37.861 5.49999 37.323 5.95238 36.3446 5.95238C35.0728 5.97618 33.8255 5.97618 32.5536 5.95238C31.9177 5.92857 31.7221 6.14285 31.7221 6.7619C31.7465 8.80952 31.7465 10.8809 31.7221 12.9286C31.7221 13.6667 31.3307 14.2143 30.597 14.2143C29.8633 14.2143 29.4475 13.6905 29.4964 12.9286C29.5209 12.6905 29.4964 12.4524 29.4964 12.2143C29.4964 9.35714 29.4964 6.49999 29.4964 3.66666C29.4964 3.23809 29.4475 2.80952 29.3986 2.38095C29.4475 0.0714227 29.5208 0.0238037 31.8933 0.0238037C33.3118 0.0238037 34.7304 0.0238037 36.1245 0.0238037C37.5186 0.0238037 37.861 0.357137 37.8855 1.66666C37.8855 2.28571 37.8855 2.92857 37.91 3.54761Z" fill="#4A3D60"/>
</svg>
