<?xml version="1.0" encoding="utf-8"?>
<!-- Generator: Adobe Illustrator 23.0.1, SVG Export Plug-In . SVG Version: 6.00 Build 0)  -->
<svg version="1.1" id="Capa_1" xmlns="http://www.w3.org/2000/svg" xmlns:xlink="http://www.w3.org/1999/xlink" x="0px" y="0px"
	 viewBox="0 0 40 40" style="enable-background:new 0 0 40 40;" xml:space="preserve">
<style type="text/css">
	.st0{fill:#FFFFFF;}
	.st1{opacity:0.6;}
</style>
<g>
	<g>
		<g>
			<path class="st0" d="M19.7,31.2c-5.7,0-10.4-4.7-10.4-10.4S14,10.5,19.7,10.5s10.4,4.7,10.4,10.4S25.4,31.2,19.7,31.2z M19.7,11
				c-5.4,0-9.8,4.4-9.8,9.8s4.4,9.8,9.8,9.8s9.8-4.4,9.8-9.8S25.1,11,19.7,11z"/>
		</g>
		<path class="st0" d="M27.2,7.4c-0.4,0.2-0.8,0.5-1.3,0.9c-0.8,0.7-1.9,1.8-3.2,3.1c-2.4,2.6-5.3,6.1-7.7,9.4
			c-2.4,3.2-4.1,5.9-5.1,8c-0.5,1.1-0.8,1.9-1,2.6c-0.1,0.4-0.1,0.7-0.1,1c0,0.3,0.2,0.5,0.4,0.7c0.3,0.3,0.7,0.6,1.1,0.8
			c0.7,0.5,1.7,0.5,2.4,0.1c0,0,0,0,0,0c0.6-0.3,1.3-0.9,1.9-1.5l-2.2-1.1c0.8-1.9,2.5-4.7,5.4-8.6c2.1-2.9,4.6-5.9,6.7-8.3
			c1.4-1.6,2.7-3,3.6-3.8l1.7,0.9c0.2-0.5,0.4-1.1,0.5-1.6c0,0,0,0,0,0c0.2-0.7-0.1-1.5-0.7-2c-0.4-0.3-0.9-0.6-1.3-0.9
			c-0.2-0.1-0.4-0.1-0.6-0.1C27.6,7.2,27.4,7.3,27.2,7.4z"/>
		<path class="st0" d="M12.1,7.4c0.4,0.2,0.8,0.5,1.3,0.9c0.8,0.7,1.9,1.8,3.2,3.1c2.4,2.6,5.3,6.1,7.7,9.4c2.4,3.2,4.1,5.9,5.1,8
			c0.5,1.1,0.8,1.9,1,2.6c0.1,0.4,0.1,0.7,0.1,1c0,0.3-0.2,0.5-0.4,0.7c-0.3,0.3-0.7,0.6-1.1,0.8c-0.7,0.5-1.7,0.5-2.4,0.1
			c0,0,0,0,0,0c-0.6-0.3-1.3-0.9-1.9-1.5l2.2-1.1c-0.8-1.9-2.5-4.7-5.4-8.6c-2.1-2.9-4.6-5.9-6.7-8.3c-1.4-1.6-2.7-3-3.6-3.8
			l-1.7,0.9c-0.2-0.5-0.4-1.1-0.5-1.6c0,0,0,0,0,0C8.7,9.4,9,8.6,9.6,8.2c0.4-0.3,0.9-0.6,1.3-0.9c0.2-0.1,0.4-0.1,0.6-0.1
			C11.7,7.2,11.9,7.3,12.1,7.4z"/>
		<g class="st1">
			<g>
				<path class="st0" d="M32,12.8L20,6.7c-0.2-0.1-0.5-0.1-0.7,0l-12,6.2C7.1,13,7,13.2,7,13.5v14.7c0,0.3,0.2,0.5,0.4,0.7l12,6.2
					c0.1,0.1,0.2,0.1,0.3,0.1c0.1,0,0.2,0,0.3-0.1l12-6.2c0.3-0.1,0.4-0.4,0.4-0.7V13.5C32.4,13.2,32.2,13,32,12.8z M20.5,33.1
					l-0.7-5.4c0-0.2-0.3-0.2-0.3,0l-0.7,5.4L8.5,27.8V14.8l5.5,1.8c0.2,0.1,0.3-0.2,0.1-0.3l-4.6-3l10.1-5.2l10.1,5.2l-4.6,3
					c-0.1,0.1,0,0.3,0.1,0.3l5.6-1.8v12.9L20.5,33.1z"/>
			</g>
		</g>
		<path class="st0" d="M18.5,22c1-1.2,1.2-1.2,2.2,0c0.3,0-1.1-2.8-1.1-2.8S18.4,22,18.5,22z"/>
	</g>
</g>
</svg>
